<!-- <svg xmlns="http://www.w3.org/2000/svg" enable-background="new 0 0 20 20" height="48px" viewBox="0 0 20 20" width="48px" fill="#FFFFFF"><g><rect fill="none" height="20" width="20"/><rect fill="none" height="20" width="20"/></g><g><g><g><circle cx="6" cy="7" r="3"/></g><g><path d="M11.03,12.37C9.56,11.5,7.84,11,6,11s-3.56,0.5-5.03,1.37C0.36,12.72,0,13.39,0,14.09V16h12v-1.91 C12,13.39,11.64,12.72,11.03,12.37z"/></g><g><path d="M15.03,12.37c-0.92-0.54-1.94-0.92-3.02-1.14c0.92,0.64,1.48,1.71,1.48,2.86V16H16v-1.91 C16,13.39,15.64,12.72,15.03,12.37z"/></g><g><path d="M10,10c1.66,0,3-1.34,3-3s-1.34-3-3-3C9.79,4,9.58,4.02,9.38,4.06C10.07,4.85,10.5,5.87,10.5,7 c0,1.13-0.43,2.14-1.12,2.93C9.58,9.98,9.79,10,10,10z"/></g><g><polygon points="19.5,7.75 17.75,7.75 17.75,6 16.25,6 16.25,7.75 14.5,7.75 14.5,9.25 16.25,9.25 16.25,11 17.75,11 17.75,9.25 19.5,9.25"/></g></g></g></svg> -->
<svg xmlns="http://www.w3.org/2000/svg" width="52.097" height="66" viewBox="0 0 79.509 53.748">
  <g id="B3T597" transform="translate(-830.983 -198)">
    <g id="Group_284" data-name="Group 284">
      <path id="Path_419" data-name="Path 419" d="M871,226.228c1.4,0,2.795-.009,4.193,0,7.763.058,13.282,5.136,13.822,12.844.172,2.455.033,4.931.057,7.4a2.245,2.245,0,0,1-1.589,2.466,51.409,51.409,0,0,1-33.4.049,2.1,2.1,0,0,1-1.587-2.213,82.566,82.566,0,0,1,.128-8.375c.822-7.356,6.031-11.97,13.439-12.155,1.644-.041,3.289-.006,4.933-.006Z" fill="#fff"/>
      <path id="Path_420" data-name="Path 420" d="M831.077,233.783c-.459-4.51.687-9.1,5.122-12.415a12.5,12.5,0,0,1,7.551-2.606q5.3-.043,10.6,0c3.908.033,5.351,1.075,6.745,4.553.514,1.282-.559,1.154-1.108,1.4a16.016,16.016,0,0,0-8.664,8.331,17.522,17.522,0,0,0-1.217,8.209c.136,2.275-.758,3.121-3.014,2.923a64.875,64.875,0,0,1-13.313-2.345c-2.1-.641-2.98-1.722-2.728-3.889A41.34,41.34,0,0,0,831.077,233.783Z" fill="#fff"/>
      <path id="Path_421" data-name="Path 421" d="M892.384,218.751c1.727,0,3.455-.019,5.181,0a12.755,12.755,0,0,1,12.9,12.795c.036,2.467-.05,4.936.02,7.4a2.425,2.425,0,0,1-2,2.661,61.518,61.518,0,0,1-14.278,2.573c-2.039.133-2.865-.654-2.749-2.687a17.571,17.571,0,0,0-1.76-9.576,15.034,15.034,0,0,0-8.174-7.136c-1.241-.472-1.275-.819-.688-2.088,1.521-3.284,3.983-4.293,7.355-3.97C889.578,218.861,890.986,218.75,892.384,218.751Z" fill="#fff"/>
      <path id="Path_422" data-name="Path 422" d="M880.734,215.538a9.957,9.957,0,0,1-19.913-.094,9.957,9.957,0,1,1,19.913.094Z" fill="#fff"/>
      <path id="Path_423" data-name="Path 423" d="M882.5,207.869a9.923,9.923,0,0,1,19.845-.121,9.974,9.974,0,0,1-10.021,10.016A9.857,9.857,0,0,1,882.5,207.869Z" fill="#fff"/>
      <path id="Path_424" data-name="Path 424" d="M849.1,198a9.884,9.884,0,1,1-9.888,9.875A9.877,9.877,0,0,1,849.1,198Z" fill="#fff"/>
    </g>
  </g>
</svg>
