<!-- <svg xmlns="http://www.w3.org/2000/svg" height="48px" viewBox="0 0 24 24" width="48px" fill="#FFFFFF"><path d="M0 0h24v24H0z" fill="none"/><path d="M15 12c2.21 0 4-1.79 4-4s-1.79-4-4-4-4 1.79-4 4 1.79 4 4 4zm-9-2V7H4v3H1v2h3v3h2v-3h3v-2H6zm9 4c-2.67 0-8 1.34-8 4v2h16v-2c0-2.66-5.33-4-8-4z"/></svg> -->

<svg xmlns="http://www.w3.org/2000/svg" width="66.334" height="66.149" viewBox="0 0 66.334 66.149">
  <g id="pGMsb5" transform="translate(-597.666 -191)">
    <g id="Group_283" data-name="Group 283">
      <path id="Path_417" data-name="Path 417" d="M597.666,242.408c2.363-4.727,6.679-7.185,11.108-9.478,1.783-.923,3.659-1.673,5.509-2.462,3.433-1.464,4.131-4.2,1.874-7.187-4.9-6.491-6.935-13.736-5.118-21.75,1.613-7.118,7.249-10.942,14.909-10.5a13.57,13.57,0,0,1,12.492,12.088,25.988,25.988,0,0,1-5.3,19.795,6.352,6.352,0,0,0-1.428,4.926,2.7,2.7,0,0,1-.5,1.924c-4.947,7.872-4.563,16.336,1.058,23.749.23.3.629.573.5,1.005-.147.5-.644.356-1.009.376-8.055.45-16.088.42-24.038-1.2a21.606,21.606,0,0,1-5.986-2,8.25,8.25,0,0,1-4.072-4.278Z" fill="#fff"/>
      <path id="Path_418" data-name="Path 418" d="M644.837,257.149c-5.739-1.32-10.092-4.5-12.242-10.028a16.327,16.327,0,0,1,14.675-22.565,16.651,16.651,0,0,1,16.482,12.88c.065.286.165.563.248.845v5.012a19.525,19.525,0,0,1-1.773,5.255,17.208,17.208,0,0,1-11.494,8.6Zm11.7-16.189c0-2.017,0-2.017-1.983-2.112-1.128-.054-2.256-.159-3.383-.146-.995.012-1.438-.358-1.405-1.381.043-1.325.005-2.653,0-3.979,0-.564-.05-1.043-.771-1.212-2.436-.57-3.26.028-3.262,2.446,0,4.106,0,4.106-4.128,4.107-2.818,0-2.781,0-2.692,2.883.034,1.083.468,1.5,1.518,1.463,1.276-.039,2.555.021,3.832-.007,1.066-.023,1.508.458,1.475,1.515-.039,1.276-.012,2.555,0,3.832.005.434-.082,1.022.393,1.181a4.915,4.915,0,0,0,3.18.023c.8-.283.387-1.208.448-1.854.139-1.455-.6-3.289.333-4.282,1.014-1.073,2.9-.353,4.4-.418C656.532,242.931,656.534,242.982,656.535,240.96Z" fill="#fff"/>
    </g>
  </g>
</svg>
