<svg xmlns="http://www.w3.org/2000/svg" width="95.691" height="128.163" viewBox="0 0 95.691 128.163">
  <g id="ZhxyeM" transform="translate(0)">
    <g id="Group_401" data-name="Group 401" transform="translate(0 0)">
      <g id="Group_400" data-name="Group 400" transform="translate(0 0)">
        <path id="Path_949" data-name="Path 949" d="M255.525,1198.23a39.772,39.772,0,0,0,13.264-2.326,14.945,14.945,0,0,0,4.141-2.424c3.188-2.638,2.843-6.478-.738-8.75a16.7,16.7,0,0,0-4.562-2.205c-.763-.206-.925-.566-.48-1.3,1.542-2.558,3.035-5.146,4.52-7.737.31-.542.636-.522,1.115-.268q3.937,2.085,7.889,4.14,5.927,3.08,11.863,6.141,5.279,2.729,10.562,5.447c.762.39.5.659-.046.945-2.8,1.453-5.6,2.9-8.393,4.358s-5.57,2.949-8.37,4.4c-2.934,1.516-5.891,2.987-8.829,4.5q-5.458,2.8-10.9,5.638-5.032,2.621-10.048,5.274a1.475,1.475,0,0,1-1.465.008c-4.851-2.418-9.648-4.944-14.45-7.453-6.312-3.3-12.68-6.489-18.953-9.861-4.3-2.311-8.683-4.454-13.005-6.719-.306-.16-.77-.245-.758-.679.01-.349.439-.37.7-.5,3.984-2.055,7.98-4.088,11.96-6.153,3.9-2.022,7.755-4.125,11.681-6.092,2.221-1.113,4.378-2.337,6.579-3.483.5-.26.783-.066,1.029.37.984,1.742,2.04,3.445,2.947,5.226.474.931,1.2,1.668,1.682,2.576.37.694.26,1.075-.59,1.252a13.044,13.044,0,0,0-5.123,2.666c-3.328,2.527-3.132,6.2.314,8.7,2.979,2.159,6.432,3.059,9.947,3.72A46.921,46.921,0,0,0,255.525,1198.23Z" transform="translate(-207.883 -1135.955)" fill="#019933"/>
        <path id="Path_950" data-name="Path 950" d="M224.64,1353.464c.381.153.789.279,1.161.473,3.329,1.736,6.62,3.55,9.988,5.2,1.98.972,3.967,1.958,5.908,2.983,2.8,1.48,5.621,2.949,8.41,4.463,1.836,1,3.732,1.881,5.584,2.849a1.254,1.254,0,0,0,1.282,0q6.441-3.369,12.891-6.721c2.921-1.511,5.875-2.959,8.786-4.49,2.84-1.494,5.651-3.041,8.538-4.447a1.608,1.608,0,0,1,1.545-.009c4.938,2.393,9.746,5.034,14.61,7.568.255.133.654.211.667.55.016.41-.433.453-.706.606-3.827,2.149-7.735,4.158-11.635,6.16q-5.528,2.837-11.058,5.68c-4.366,2.244-8.754,4.442-13.067,6.791-3.515,1.914-7.126,3.651-10.694,5.467a1.225,1.225,0,0,1-1.209-.03q-9.475-4.931-18.963-9.837c-2.362-1.219-4.817-2.27-7.12-3.59-3.288-1.885-6.709-3.505-10.043-5.3-.933-.5-1.876-.994-2.845-1.422-1.767-.78-3.341-1.917-5.145-2.649-.863-.35-1.662-.961-2.515-1.412-.205-.109-.49-.191-.46-.5.028-.283.3-.348.516-.458,3.463-1.814,6.922-3.635,10.39-5.437,1.506-.782,3.031-1.526,4.551-2.28A5.524,5.524,0,0,1,224.64,1353.464Z" transform="translate(-208.426 -1283.581)" fill="#019933"/>
        <path id="Path_951" data-name="Path 951" d="M256.014,1523.746a7.9,7.9,0,0,1-2.327-1.025c-1.6-.992-3.28-1.821-4.926-2.712q-4.313-2.335-8.717-4.5c-4.185-2.061-8.275-4.306-12.433-6.42-2.126-1.081-4.257-2.177-6.374-3.282-3.943-2.059-7.794-4.3-11.865-6.117-.476-.212-1.2-.4-1.215-.951-.015-.5.729-.532,1.141-.749q6.065-3.2,12.149-6.356a4.682,4.682,0,0,0,.9-.436c1.389-1.185,2.634-.694,4.038.093,2.772,1.553,5.638,2.939,8.462,4.4q4.038,2.087,8.07,4.186c3.869,2.008,7.747,4,11.6,6.038a2.472,2.472,0,0,0,2.679.153c2.725-1.512,5.563-2.818,8.293-4.322,4.089-2.252,8.324-4.218,12.409-6.479,2.989-1.655,6.079-3.128,9.115-4.7a1.334,1.334,0,0,1,1.365.007q4.181,2.2,8.384,4.364c2.072,1.069,4.156,2.117,6.23,3.183.314.161.791.26.808.648.018.418-.482.488-.79.647-3.445,1.776-6.9,3.534-10.307,5.382-3.807,2.063-7.7,3.969-11.569,5.917-3.271,1.647-6.472,3.424-9.755,5.052-4.417,2.191-8.737,4.578-13.1,6.872C257.526,1523.03,256.76,1523.381,256.014,1523.746Z" transform="translate(-208.107 -1395.583)" fill="#019933"/>
        <path id="Path_952" data-name="Path 952" d="M408.532,986.347a21.446,21.446,0,0,1-1.506,7.681,94.559,94.559,0,0,1-6.292,12.988A145.755,145.755,0,0,1,393,1019.539c-.621.9-1.2,1.819-1.793,2.735-.353.547-.692.635-1.084.033-1.57-2.411-3.159-4.809-4.718-7.227-.853-1.323-1.674-2.667-2.482-4.017q-2.472-4.132-4.666-8.418c-1.1-2.159-2.225-4.317-3.152-6.553-1.252-3.023-2.434-6.107-2.3-9.466a18.066,18.066,0,0,1,2.777-8.819,17.142,17.142,0,0,1,10.152-7.624,17.51,17.51,0,0,1,13.481,1.5,17.087,17.087,0,0,1,5.367,4.511,17.965,17.965,0,0,1,3.515,7.353A10.071,10.071,0,0,1,408.532,986.347Zm-17.838-5.934a6.973,6.973,0,1,0-.008,13.946,6.973,6.973,0,0,0,.008-13.946Z" transform="translate(-342.785 -969.454)" fill="#019933"/>
      </g>
    </g>
  </g>
</svg>
