<svg xmlns="http://www.w3.org/2000/svg" width="125.364" height="48.303" viewBox="0 0 125.364 48.303">
  <g id="Group_68" data-name="Group 68" transform="translate(-1078.222 -1249)">
    <g id="h336pE">
      <g id="Group_67" data-name="Group 67">
        <path id="Path_220" data-name="Path 220" d="M1078.222,1273.15a24.151,24.151,0,1,1,24.133,24.153A24.172,24.172,0,0,1,1078.222,1273.15Zm29.812,13.3a.951.951,0,0,0,.8-.571.981.981,0,0,0-.238-1.117q-1.6-1.762-3.2-3.531-3.511-3.865-7.024-7.728c-.319-.351-.319-.361,0-.714l8.975-9.882c.432-.475.87-.945,1.29-1.431a.953.953,0,0,0-.457-1.6.97.97,0,0,0-.988.373q-2.337,2.58-4.677,5.156-3.136,3.453-6.272,6.905a1.027,1.027,0,0,0,0,1.678c1.208,1.338,2.427,2.666,3.638,4q2.133,2.354,4.263,4.711c1.014,1.119,2.034,2.231,3.048,3.349A1.107,1.107,0,0,0,1108.034,1286.455Z" fill="#019933"/>
      </g>
    </g>
    <text id="Back" transform="translate(1147.586 1281.206)" fill="#006837" font-size="24.747" font-family="Helvetica"><tspan x="0" y="0">Back</tspan></text>
  </g>
</svg>
