<!-- <svg xmlns="http://www.w3.org/2000/svg" height="48px" viewBox="0 0 24 24" width="48px" fill="#FFFFFF"><path d="M0 0h24v24H0z" fill="none"/><path d="M19 3h-1V1h-2v2H8V1H6v2H5c-1.11 0-1.99.9-1.99 2L3 19c0 1.1.89 2 2 2h14c1.1 0 2-.9 2-2V5c0-1.1-.9-2-2-2zm0 16H5V8h14v11zM7 10h5v5H7z"/></svg> -->
<svg xmlns="http://www.w3.org/2000/svg" width="52.097" height="66" viewBox="0 0 77.639 79.995">
  <g id="JGyirf" transform="translate(-1077.964 -178)">
    <g id="Group_285" data-name="Group 285">
      <path id="Path_425" data-name="Path 425" d="M1116.8,257.983c-9.4,0-18.793.034-28.189-.013a10.226,10.226,0,0,1-9.909-6.541,8.424,8.424,0,0,1-.735-3.471q0-25.245.008-50.49a10.4,10.4,0,0,1,8.973-9.936c1.736-.205,1.53-.241,1.533,1.38.005,2.316-.007,4.632,0,6.948a5.231,5.231,0,0,0,10.311,1.32,5.819,5.819,0,0,0,.121-1.511c.005-2.448,0-4.9,0-7.345,0-.858.055-.908.893-.909h33.219c.928,0,.911.05.9.988-.028,2.755-.157,5.514.08,8.265a5.181,5.181,0,0,0,4.578,4.462,5.263,5.263,0,0,0,5.433-3.277,5.833,5.833,0,0,0,.4-2.131c-.016-2.493.01-4.986-.018-7.478-.007-.63.2-.842.833-.841a10.478,10.478,0,0,1,10.352,10.279q.026,25.014,0,50.027a10.39,10.39,0,0,1-10.266,10.266C1135.817,258,1126.31,257.983,1116.8,257.983Zm-.039-50.44q-16.278,0-32.556-.011c-.643,0-.883.152-.882.845q.03,19.421.018,38.843a5.044,5.044,0,0,0,5.332,5.3h56.18a5.017,5.017,0,0,0,5.355-5.28q.028-19.389,0-38.777c0-.922-.014-.924-.96-.924Z" fill="#fff"/>
      <path id="Path_426" data-name="Path 426" d="M1097.747,188.955c0,2.292.01,4.584,0,6.875a3.9,3.9,0,0,1-2.14,3.623,3.856,3.856,0,0,1-4.14-.221,4.052,4.052,0,0,1-1.79-3.633c-.017-4.474-.06-8.948.012-13.421a4.029,4.029,0,1,1,8.056-.1C1097.759,184.371,1097.747,186.663,1097.747,188.955Z" fill="#fff"/>
      <path id="Path_427" data-name="Path 427" d="M1135.156,188.989c0-2.314-.01-4.628,0-6.942a4.023,4.023,0,0,1,7.587-1.883,4.849,4.849,0,0,1,.491,2.371q.02,6.412,0,12.825c-.009,2.327-1.079,3.886-2.959,4.409a4,4,0,0,1-5.115-3.839C1135.135,193.617,1135.157,191.3,1135.156,188.989Z" fill="#fff"/>
      <path id="Path_428" data-name="Path 428" d="M1116.451,214.932c1.059,0,2.117.015,3.175-.008.461-.009.653.1.659.623.026,2.178.044,4.355,0,6.534-.011.558-.184.719-.721.713q-3.175-.035-6.35,0c-.566.006-.8-.188-.792-.76q.024-3.174,0-6.349c-.005-.573.224-.777.79-.762C1114.29,214.953,1115.371,214.932,1116.451,214.932Z" fill="#fff"/>
      <path id="Path_429" data-name="Path 429" d="M1128.676,222.784c-1.058,0-2.118-.023-3.175.011-.538.017-.765-.176-.761-.711.011-1.609.008-3.218.007-4.827,0-.528-.006-1.056-.022-1.583s.189-.756.741-.751c2.161.019,4.321.014,6.482.006.407,0,.666.056.649.572-.072,2.223.092,4.446-.005,6.671-.02.458-.152.627-.609.619C1130.881,222.771,1129.778,222.784,1128.676,222.784Z" fill="#fff"/>
      <path id="Path_430" data-name="Path 430" d="M1088.812,231.162c0-1.1.018-2.2-.011-3.306-.012-.469.163-.62.612-.617q3.273.018,6.546,0c.521,0,.7.218.7.712q-.014,3.24,0,6.48c0,.468-.166.673-.659.67q-3.306-.024-6.612,0c-.484,0-.595-.193-.585-.633C1088.828,233.367,1088.812,232.264,1088.812,231.162Z" fill="#fff"/>
      <path id="Path_431" data-name="Path 431" d="M1144.6,218.856c0,1.081-.017,2.162.007,3.242.012.52-.2.7-.7.693q-3.242-.024-6.484,0c-.474,0-.679-.165-.676-.654q.018-3.274,0-6.55c0-.485.2-.662.672-.66,2.161.013,4.323.019,6.484,0,.569-.006.72.239.708.757C1144.586,216.738,1144.6,217.8,1144.6,218.856Z" fill="#fff"/>
      <path id="Path_432" data-name="Path 432" d="M1104.806,235.093c-1.079,0-2.158-.015-3.236.006-.486.01-.668-.187-.666-.661q.015-3.237,0-6.472c0-.539.215-.734.751-.73q3.2.027,6.405,0c.5,0,.7.174.7.694q-.028,3.3,0,6.6c0,.447-.173.569-.586.563C1107.051,235.082,1105.928,235.093,1104.806,235.093Z" fill="#fff"/>
      <path id="Path_433" data-name="Path 433" d="M1140.8,235.092c-1.08,0-2.16-.014-3.24.007-.481.009-.672-.178-.67-.659q.018-3.273,0-6.545c0-.484.195-.66.673-.657q3.238.021,6.479,0c.5,0,.707.172.7.693q-.027,3.24,0,6.479c0,.525-.2.7-.706.689C1142.964,235.078,1141.883,235.092,1140.8,235.092Z" fill="#fff"/>
      <path id="Path_434" data-name="Path 434" d="M1116.585,247.4c-1.079,0-2.159-.014-3.239.006-.5.009-.714-.154-.71-.683q.029-3.24,0-6.479c0-.515.187-.7.7-.7q3.24.022,6.479,0c.474,0,.682.163.679.65q-.018,3.273,0,6.545c0,.531-.241.678-.732.667C1118.7,247.386,1117.643,247.4,1116.585,247.4Z" fill="#fff"/>
      <path id="Path_435" data-name="Path 435" d="M1124.949,243.44c0-1.1.017-2.206-.008-3.308-.01-.438.155-.585.575-.583q3.309.015,6.616,0c.489,0,.666.219.665.681q-.01,3.274,0,6.55c0,.446-.185.628-.636.625q-3.276-.017-6.55,0c-.477,0-.674-.169-.664-.658.022-1.1.007-2.205.007-3.308Z" fill="#fff"/>
      <path id="Path_436" data-name="Path 436" d="M1116.517,235.092c-1.057,0-2.114-.013-3.171.007-.5.01-.714-.156-.709-.684q.029-3.237,0-6.475c0-.51.179-.706.692-.7q3.2.024,6.409,0c.53,0,.758.185.755.728q-.021,3.238,0,6.475c0,.478-.187.668-.67.659C1118.72,235.078,1117.618,235.092,1116.517,235.092Z" fill="#fff"/>
      <path id="Path_437" data-name="Path 437" d="M1124.951,231.266c0-1.1.017-2.205-.006-3.306-.011-.5.14-.726.671-.722q3.24.024,6.481,0c.52,0,.7.223.7.716q-.014,3.207,0,6.415c0,.538-.213.737-.752.732q-3.24-.028-6.481,0c-.507,0-.639-.184-.626-.661C1124.971,233.383,1124.95,232.324,1124.951,231.266Z" fill="#fff"/>
      <path id="Path_438" data-name="Path 438" d="M1104.794,247.4c-1.058,0-2.115-.017-3.172.008-.5.012-.724-.152-.721-.675q.023-3.237,0-6.475c0-.5.182-.715.7-.711q3.239.024,6.476,0c.467,0,.676.155.673.65q-.023,3.271,0,6.541c0,.479-.174.675-.658.667C1107,247.388,1105.9,247.4,1104.794,247.4Z" fill="#fff"/>
      <path id="Path_439" data-name="Path 439" d="M1088.812,243.367c0-1.079.016-2.158-.009-3.236-.01-.438.156-.584.575-.582q3.336.015,6.671,0c.379,0,.584.134.584.528q0,3.4,0,6.8c0,.394-.182.529-.571.527q-3.3-.018-6.6,0c-.488,0-.659-.2-.651-.671.02-1.122.007-2.245.007-3.368Z" fill="#fff"/>
    </g>
  </g>
</svg>
