<svg xmlns="http://www.w3.org/2000/svg" width="150.918" height="169.838" viewBox="0 0 150.918 169.838">
  <g id="lPZGsS" transform="translate(-793.812 -934.795)">
    <g id="Group_65" data-name="Group 65">
      <path id="Path_210" data-name="Path 210" d="M916.913,983.068c-.425,3.9.288,7.342,2.765,10.294a15.9,15.9,0,0,0,5.083,3.7c2.02,1.046,2.218,1.32,1.983,3.489-.475,4.382-.845,8.783-1.718,13.106a43.5,43.5,0,0,0-.66,7.324,63.992,63.992,0,0,1,1.644,9.259c.082.736.1,4.767.2,5.575a11.121,11.121,0,0,1,.2,2.376,6,6,0,0,1-3.377,5.029c-5.033,2.689-6.489,6.953-5.627,12.32.337,2.093.126,2.366-1.786,3.394-6.05,3.252-12.182,6.288-19.018,7.561a3.372,3.372,0,0,0-1.7,1.194,84.194,84.194,0,0,1-14.552,11.447,2.466,2.466,0,0,1-3.2-.071,14.9,14.9,0,0,0-7.267-2.805c-3.261-.381-5.995.892-8.5,2.726a2.47,2.47,0,0,1-3.457-.013c-5.138-3.71-10.368-7.288-14.664-12.019a2.21,2.21,0,0,0-1.193-.7c-5.364-1.166-10.285-3.485-15.176-5.875a31.57,31.57,0,0,1-4.36-2.262,2.664,2.664,0,0,1-1.346-2.842,13.284,13.284,0,0,0-1.215-8.221,12.763,12.763,0,0,0-5.965-5.583c-2.028-1.021-2.406-1.616-2.013-3.848.248-1.406.365-7.517.369-7.9.03-2.794,1.88-25.358,1.114-30.829a2.7,2.7,0,0,1,1.862-3.171c4.812-2.146,7.644-5.782,7.9-11.173a22.165,22.165,0,0,0-.179-2.94,1.864,1.864,0,0,1,1.187-2,80.8,80.8,0,0,1,15.281-6.072A14.109,14.109,0,0,0,845.7,969.8a96.808,96.808,0,0,1,12.316-9.584c1.34-.921,2.493-.617,3.736.264a12.287,12.287,0,0,0,12.39,1.589,15.078,15.078,0,0,0,3.466-2.137,1.846,1.846,0,0,1,2.437-.04c5.642,3.892,11.311,7.751,15.774,13.062a3.4,3.4,0,0,0,1.966.983,92.385,92.385,0,0,1,17.581,6.745C916.7,981.339,916.944,981.812,916.913,983.068Zm-28.949,34.346c-5.3.014-8.346-3.071-8.28-7.453.047-3.1,2.073-5.042,4.174-6.863,3.274-2.836,7.077-4.935,10.629-7.386a25.466,25.466,0,0,0,3.656-2.852,2.948,2.948,0,0,0,.122-4.389,13.837,13.837,0,0,0-3.654-2.823c-2.717-1.56-5.831-2.51-8.055-4.826-1.493-1.554-3.359-1.743-5.26-1.918a2.324,2.324,0,0,0-2.259,1.412,6.89,6.89,0,0,0-.65,2.144c-.721,4.037-.552,8.135-.827,12.2a23.442,23.442,0,0,1-1.933,8.452,5.992,5.992,0,0,1-4.593,3.562c-4.355.763-7.18-.865-8.694-5.013a16.934,16.934,0,0,1-.689-2.579,66.747,66.747,0,0,1-.87-11.488,23.837,23.837,0,0,0-.888-6.391,2.984,2.984,0,0,0-3.622-2.352,8.962,8.962,0,0,0-3.412,1.255c-3.152,1.762-6.089,3.892-9.363,5.451a4.953,4.953,0,0,0-1.3,1.057,3.384,3.384,0,0,0-.419,4.486,9.77,9.77,0,0,0,3,2.728c2.772,1.85,5.587,3.634,8.338,5.512a20.423,20.423,0,0,1,5.823,5.242c1.971,2.948,2.065,6.018.281,8.551a7.536,7.536,0,0,1-8.244,2.8c-3.882-.933-7.321-2.873-10.807-4.711-2.528-1.333-4.974-2.858-7.82-3.473a2.992,2.992,0,0,0-3.834,2.168,11.41,11.41,0,0,0-.528,3.6c0,2.722-.012,5.444.007,8.166.01,1.41-.492,2.767-.33,4.2.418,3.688,2.233,4.858,5.7,3.6,2.476-.9,4.816-2.095,7.194-3.213,3.436-1.615,6.852-3.306,10.652-3.963a7.128,7.128,0,0,1,7.449,3.12c1.872,2.893,1.864,5.442-.1,8.249a16.177,16.177,0,0,1-4.824,4.461c-3.669,2.273-7.385,4.477-10.99,6.848-4.063,2.674-4.025,5.245.014,7.986,2.525,1.713,5.414,2.816,7.876,4.638a12.955,12.955,0,0,0,4.329,2.279c3.3.886,4.731.086,5.306-3.25a70,70,0,0,0,.607-7.986c.2-3.648.243-7.315,1.4-10.848,1.118-3.409,3.494-5.42,6.679-5.523,3.633-.117,6.057,1.556,7.364,5.125a19.148,19.148,0,0,1,.649,2.3,55.792,55.792,0,0,1,.867,9.793,49.777,49.777,0,0,0,.569,7.705c.6,2.867,2.49,3.88,5.221,2.872a21.274,21.274,0,0,0,3.759-1.907,39.555,39.555,0,0,1,7.934-4.2,5.319,5.319,0,0,0,3.721-4.1c.315-1.968-1.393-2.916-2.654-4.01a5.931,5.931,0,0,0-.815-.553c-2.6-1.591-5.234-3.135-7.8-4.778-2.959-1.893-6.011-3.695-7.944-6.8a7.1,7.1,0,0,1,4.445-10.455,12.62,12.62,0,0,1,6.5.629,73.644,73.644,0,0,1,10.162,4.49,27.822,27.822,0,0,0,5.619,2.218c2.122.52,3.314-.1,4.058-2.159a12.366,12.366,0,0,0,.493-6.11c-.455-3.081-.719-6.136.372-9.174a3.124,3.124,0,0,0-3.733-4.216,9.119,9.119,0,0,0-2.125.714c-2.941,1.464-5.853,2.983-8.782,4.469C893.731,1015.713,890.621,1017.264,887.964,1017.414Z" fill="#f0f"/>
      <path id="Path_211" data-name="Path 211" d="M880.6,1093.744c-.069,5.84-5.714,11.2-11.939,10.875-6.524-.342-11-4.732-11.012-11.56a11.08,11.08,0,0,1,11.011-11.416C876.181,1081.837,880.379,1086.259,880.6,1093.744Z" fill="#f0f"/>
      <path id="Path_212" data-name="Path 212" d="M805.393,1066.123a11.572,11.572,0,0,1-11.581-11.189c.032-6.175,5.437-11.682,11.558-11.669,6.212.013,11.492,5.461,11.59,11.8C817.045,1060.52,811.795,1066.185,805.393,1066.123Z" fill="#f0f"/>
      <path id="Path_213" data-name="Path 213" d="M933.287,994.613a11.6,11.6,0,0,1-11.622-11.348,11.772,11.772,0,0,1,11.619-11.553,11.453,11.453,0,0,1,0,22.9Z" fill="#f0f"/>
      <path id="Path_214" data-name="Path 214" d="M807.027,993.233a11.257,11.257,0,0,1-11.368-11.326,11.1,11.1,0,0,1,11.475-11.321,11.324,11.324,0,1,1-.107,22.647Z" fill="#f0f"/>
      <path id="Path_215" data-name="Path 215" d="M869.178,957.47a11,11,0,0,1-11.192-10.976c-.02-6.727,4.829-11.708,11.387-11.7,6.464.01,11.176,5,11.312,11.677C880.794,951.848,875.557,957.926,869.178,957.47Z" fill="#f0f"/>
      <path id="Path_216" data-name="Path 216" d="M933.06,1066.673a11.128,11.128,0,0,1-11.082-11.274,11.319,11.319,0,0,1,11.164-11.263,11.44,11.44,0,0,1,11.588,11.191A11.323,11.323,0,0,1,933.06,1066.673Z" fill="#f0f"/>
    </g>
  </g>
</svg>
