<svg xmlns="http://www.w3.org/2000/svg" width="117.085" height="132.013" viewBox="0 0 117.085 132.013">
  <g id="_1f2HM3" data-name="1f2HM3" transform="translate(0)">
    <g id="Group_402" data-name="Group 402" transform="translate(0 0)">
      <path id="Path_953" data-name="Path 953" d="M1948.764,376.457c-4.906-5.29-9.18-9.891-13.445-14.5-1-1.078-1.939-1.57-3.1-.156-3.993,4.845-8.928,8.871-12.844,14.566,5.433.091,5.643,3.424,5.557,7.393-.195,9.118-.032,18.244-.1,27.365-.011,1.531.544,3.915-1.975,3.806-2.036-.088-1.729-2.251-1.737-3.723-.049-8.56-.128-17.123.013-25.681.053-3.216-.994-4.706-4.343-4.487-1.613.105-3.675.389-4.421-1.557s1.142-2.985,2.221-4.172c5.188-5.711,10.517-11.3,15.625-17.078,2.343-2.651,4.114-3.2,6.738-.223,5.282,6,10.879,11.723,16.311,17.593,1.019,1.1,2.522,2.188,1.892,3.936-.662,1.839-2.533,1.627-4,1.5-3.872-.345-4.76,1.593-4.685,5.054.168,7.714.067,15.436.037,23.155a28.6,28.6,0,0,1-.327,4.182,1.828,1.828,0,0,1-1.609,1.707c-1.23.11-1.683-.795-1.982-1.778a4.374,4.374,0,0,1-.216-1.24q-.019-15.786,0-31.572C1942.384,376.963,1945.321,377.011,1948.764,376.457Z" transform="translate(-1874.588 -336.623)" fill="#019933"/>
      <path id="Path_954" data-name="Path 954" d="M1906.618,453.974a25.543,25.543,0,1,1,51.083.478c-.079,14-11.648,25.683-25.36,25.6A25.722,25.722,0,0,1,1906.618,453.974Zm25.707,21.88a21.3,21.3,0,0,0,21.584-21.6,21.759,21.759,0,1,0-43.512.331C1910.474,466.627,1920.045,475.912,1932.325,475.854Z" transform="translate(-1873.709 -348.041)" fill="#019933"/>
      <path id="Path_955" data-name="Path 955" d="M1884.054,352.913c5.553-.416,6.073,2.254,6.028,5.819-.109,8.55.058,17.1.1,25.657.007,1.512.311,3.6-1.726,3.7-2.376.109-2.163-2.184-2.176-3.783-.068-7.712-.158-15.427.012-23.136.068-3.041-.707-4.481-3.989-4.068-1.48.187-3.312.241-4.116-1.394-.858-1.747.711-2.887,1.689-3.964,5.182-5.707,10.495-11.3,15.666-17.017,2.106-2.33,3.851-2.222,5.9.056,5.339,5.944,10.815,11.766,16.147,17.717,2.292,2.557,1.8,4.336-1.446,4.418-4.118.1-5.9,1.564-5.557,5.757.116,1.415-.032,3.539-2.163,3.395-2.025-.136-1.857-2.156-1.91-3.663-.07-1.96-.024-3.925.016-5.888.036-1.683.588-3.2,2.462-3.386,3.106-.309,2.779-1.507,1.1-3.314-3.343-3.591-6.685-7.184-9.981-10.818-1.034-1.139-1.949-1.493-3.117-.211C1892.955,343.218,1888.9,347.625,1884.054,352.913Z" transform="translate(-1869.193 -333.006)" fill="#019933"/>
      <path id="Path_956" data-name="Path 956" d="M1982.074,352.831c-4.739-5.177-8.7-9.5-12.659-13.828-.981-1.073-1.911-1.584-3.089-.148-3.711,4.524-8.319,8.272-11.68,13.187,4.488,1.851,6.768,8.11,4.765,12.61-.367.824-.87,1.52-1.838,1.432s-1.4-.843-1.51-1.742a8.474,8.474,0,0,1-.113-2.094c.489-3.773-.975-5.522-4.916-5.181-1.332.115-2.986.033-3.626-1.537-.666-1.634.757-2.56,1.662-3.554,5.189-5.7,10.467-11.328,15.6-17.079,1.983-2.218,3.666-2.71,5.86-.287,5.269,5.82,10.668,11.522,15.957,17.325.9.986,2.25,2.036,1.569,3.627-.747,1.747-2.569,1.72-4.023,1.517-3.593-.5-4.206,1.25-4.134,4.342.163,7.149.059,14.3.041,21.457a21.884,21.884,0,0,1-.217,3.349c-.161,1.018-.688,1.947-1.891,1.866-1.22-.082-1.553-1.1-1.586-2.12-.075-2.382-.085-4.767-.088-7.15-.01-6.732.137-13.468-.06-20.194C1975.994,354.966,1976.818,352.516,1982.074,352.831Z" transform="translate(-1880.104 -333.003)" fill="#019933"/>
      <path id="Path_957" data-name="Path 957" d="M1979.5,442.628a19.569,19.569,0,1,1,.368-39.133,19.568,19.568,0,0,1-.368,39.133Zm15.677-19.443a15.442,15.442,0,0,0-15.514-15.891c-8.89-.02-15.559,6.75-15.555,15.788,0,8.843,6.573,15.636,15.215,15.731A15.77,15.77,0,0,0,1995.179,423.185Z" transform="translate(-1882.094 -344.101)" fill="#019933"/>
      <path id="Path_958" data-name="Path 958" d="M1867.559,423.022a19.364,19.364,0,0,1,19.464-19.526,19.782,19.782,0,0,1,19.646,19.57c0,10.534-9.089,19.562-19.7,19.565A19.421,19.421,0,0,1,1867.559,423.022Zm34.874.211c.085-9.036-6.482-15.84-15.377-15.934a15.614,15.614,0,0,0-15.7,15.335,15.844,15.844,0,0,0,15.3,16.19A15.331,15.331,0,0,0,1902.433,423.234Z" transform="translate(-1867.559 -344.102)" fill="#019933"/>
      <path id="Path_959" data-name="Path 959" d="M1911.9,398.561c0-1.964-.063-3.931.024-5.892.051-1.146.393-2.352,1.784-2.491,1.453-.146,1.935,1.024,2.067,2.164a53.674,53.674,0,0,1-.124,13.014c-.133,1.046-.6,1.967-1.823,1.922a1.9,1.9,0,0,1-1.8-1.99c-.107-2.238-.034-4.483-.034-6.726Z" transform="translate(-1874.537 -342.003)" fill="#019933"/>
      <path id="Path_960" data-name="Path 960" d="M1934.675,436.9c.53.431,1.286.751,1.3,1.1.158,3.6,3.235,3.663,5.5,4.813a10.8,10.8,0,0,1,3.212,2.628c1.012,1.191,1.88,2.853.316,4.086-1.646,1.295-2.33-.527-3.232-1.523-2.59-2.86-9.646-3.721-12.878-1.624a3.416,3.416,0,0,0,.248,6.1,9.882,9.882,0,0,0,4.917.9,19.343,19.343,0,0,1,7.045.97c3.255,1.191,5.723,3.109,5.758,6.917.034,3.735-2.132,5.972-5.455,7.161-2.356.843-4.985,1.187-5.289,4.486a1.446,1.446,0,0,1-1.622,1.069,1.624,1.624,0,0,1-1.611-1.632c-.081-2.577-1.895-3.074-3.871-3.653a9.248,9.248,0,0,1-5.82-4.531c-.619-1.164-.939-2.526.382-3.386,1.271-.827,1.957.324,2.728,1.161a12.047,12.047,0,0,0,14.151,2.758c1.506-.752,2.484-1.838,2.352-3.618a3.386,3.386,0,0,0-2.6-2.97,16.72,16.72,0,0,0-6.205-.931,15.151,15.151,0,0,1-6.555-1.268,7,7,0,0,1-4.435-6.595c-.069-2.906,1.475-5.008,4.055-6.387,2.385-1.276,6.137-.888,6.239-5.062C1933.316,437.569,1934.126,437.279,1934.675,436.9Z" transform="translate(-1876.234 -349.362)" fill="#019933"/>
      <path id="Path_961" data-name="Path 961" d="M1889.133,411.034c.349.283.847.494.857.726.1,2.367,2.127,2.411,3.62,3.166a7.1,7.1,0,0,1,2.113,1.73c.666.783,1.238,1.876.208,2.688-1.083.853-1.533-.346-2.126-1-1.7-1.882-6.346-2.448-8.474-1.068a2.247,2.247,0,0,0,.163,4.014,6.513,6.513,0,0,0,3.235.593,12.718,12.718,0,0,1,4.635.638c2.142.784,3.765,2.046,3.788,4.551.023,2.458-1.4,3.929-3.589,4.712-1.55.554-3.279.781-3.48,2.951a.95.95,0,0,1-1.067.7,1.068,1.068,0,0,1-1.06-1.074c-.053-1.7-1.247-2.023-2.547-2.4a6.084,6.084,0,0,1-3.829-2.982c-.408-.766-.618-1.662.251-2.228.837-.544,1.287.213,1.795.763a7.926,7.926,0,0,0,9.311,1.815,2.35,2.35,0,0,0,1.548-2.38,2.228,2.228,0,0,0-1.71-1.954,10.986,10.986,0,0,0-4.082-.613,9.979,9.979,0,0,1-4.314-.834,4.6,4.6,0,0,1-2.918-4.339,4.487,4.487,0,0,1,2.668-4.2c1.57-.839,4.038-.585,4.106-3.331C1888.239,411.471,1888.772,411.281,1889.133,411.034Z" transform="translate(-1869.711 -345.288)" fill="#019933"/>
      <path id="Path_962" data-name="Path 962" d="M1983.133,411.034c.349.283.847.494.857.726.1,2.367,2.127,2.411,3.62,3.166a7.1,7.1,0,0,1,2.113,1.73c.666.783,1.238,1.876.208,2.688-1.083.853-1.532-.346-2.126-1-1.7-1.882-6.346-2.448-8.474-1.068a2.247,2.247,0,0,0,.164,4.014,6.512,6.512,0,0,0,3.235.593,12.717,12.717,0,0,1,4.635.638c2.142.784,3.765,2.046,3.788,4.551.023,2.458-1.4,3.929-3.589,4.712-1.549.554-3.279.781-3.48,2.951a.95.95,0,0,1-1.067.7,1.068,1.068,0,0,1-1.06-1.074c-.053-1.7-1.247-2.023-2.547-2.4a6.084,6.084,0,0,1-3.83-2.982c-.408-.766-.618-1.662.251-2.228.837-.544,1.287.213,1.795.763a7.926,7.926,0,0,0,9.311,1.815,2.35,2.35,0,0,0,1.548-2.38,2.229,2.229,0,0,0-1.71-1.954,10.986,10.986,0,0,0-4.082-.613,9.979,9.979,0,0,1-4.314-.834,4.6,4.6,0,0,1-2.918-4.339,4.486,4.486,0,0,1,2.667-4.2c1.57-.839,4.038-.585,4.106-3.331C1982.239,411.471,1982.772,411.281,1983.133,411.034Z" transform="translate(-1884.511 -345.288)" fill="#019933"/>
    </g>
  </g>
</svg>
