<svg xmlns="http://www.w3.org/2000/svg" width="153.862" height="153.846" viewBox="0 0 166.496 141.394">
  <g id="_1vBQWs" data-name="1vBQWs" transform="translate(3480.839 1641)">
    <g id="Group_15" data-name="Group 15">
      <path id="Path_41" data-name="Path 41" d="M-3338.92-1563.537c-3.883,0-7.784-.227-11.645.069-3.5.269-5.108-.921-5.989-4.409-3.464-13.716-7.167-27.372-10.926-41.01-.713-2.587-.548-6.291-4.506-6.477-4.177-.2-4.327,3.6-5.23,6.286-7.625,22.668-15.146,45.371-22.739,68.05-.418,1.251-.4,3.361-1.788,3.432-1.775.09-1.675-2.171-2.2-3.433q-7.881-19.1-15.581-38.276c-.822-2.037-1.612-4.085-4.185-4.254-2.664-.175-3.577,1.9-4.483,3.86-1.892,4.092-3.97,8.116-5.571,12.32-1.187,3.117-3.075,3.978-6.261,3.911-9.141-.192-18.294-.242-27.432.019-3.664.1-5.656-1.248-7.374-4.358-16.083-29.115,1.671-66.294,34.568-72.106,14.787-2.613,28.12.858,39.8,10.239,2.3,1.849,3.609,1.732,5.9-.021,16.43-12.553,34.359-14.96,52.875-5.671,18.785,9.424,27.726,25.43,27.326,46.416a45.87,45.87,0,0,1-6.91,22.764,4.9,4.9,0,0,1-4.876,2.683C-3330.4-1563.626-3334.66-1563.539-3338.92-1563.537Z" fill="#019933"/>
      <path id="Path_42" data-name="Path 42" d="M-3372.871-1598.495c1.33.875,1.305,2.2,1.62,3.366,2.905,10.756,5.9,21.489,8.653,32.284.9,3.553,2.791,4.919,6.381,4.856,8.14-.141,16.284-.063,24.426-.014,1.024.006,2.513-.577,2.942.8.312,1-.877,1.718-1.6,2.35-9.352,8.137-18.7,16.283-28.112,24.346q-16.408,14.052-32.933,27.97c-4.588,3.879-7.415,3.911-11.93.08q-29.078-24.677-58.072-49.449c-1.814-1.554-5.141-3.257-4.372-5.429.634-1.791,4.305-.62,6.612-.653,7.639-.11,15.289-.247,22.92.038,4.263.16,6.934-1.171,8.215-5.336a36.508,36.508,0,0,1,2.488-5.464c.369-.737.528-1.906,1.617-1.84,1.045.063,1.136,1.206,1.448,1.972q6.444,15.829,12.844,31.678c1.363,3.366,2.736,6.728,4.068,10.106.82,2.078,1.874,4.026,4.412,3.976,2.584-.051,3.415-2.113,4.119-4.23q11.137-33.506,22.333-66.991C-3374.295-1595.58-3374.047-1597.232-3372.871-1598.495Z" fill="#019933"/>
    </g>
  </g>
</svg>
