<svg xmlns="http://www.w3.org/2000/svg" width="124.722" height="119.834" viewBox="0 0 124.722 119.834">
  <g id="Group_409" data-name="Group 409" transform="translate(0 0)">
    <g id="Group_408" data-name="Group 408" transform="translate(19.817 56.06)">
      <path id="Path_966" data-name="Path 966" d="M332.8,3033.751a1.957,1.957,0,0,0,.666.287,7.47,7.47,0,0,1,5.079,5.539,7.93,7.93,0,0,1-5.1,9.162,18.014,18.014,0,0,1-5.635,1.036,46.428,46.428,0,0,1-7.093-.226c-.477-.055-.582-.227-.582-.669q.017-12.129.008-24.258c0-1.2,0-2.4,0-3.594,0-.27.045-.456.364-.506a29.754,29.754,0,0,1,11.253-.037,7.616,7.616,0,0,1,4.653,2.942A6.655,6.655,0,0,1,334.27,3033,15,15,0,0,1,332.8,3033.751Zm-8.822,7.262c0,1.691.016,3.382-.01,5.073-.007.444.177.584.565.6s.747.05,1.121.068a13.883,13.883,0,0,0,5.62-.675,5.318,5.318,0,0,0,2.287-8.164,6.333,6.333,0,0,0-3.9-2.131,27.809,27.809,0,0,0-5.149-.28c-.45-.008-.55.153-.545.57C324,3037.721,323.983,3039.367,323.983,3041.013Zm0-13.1c0,1.393.014,2.786-.009,4.178-.006.4.132.513.519.5.959-.023,1.92.011,2.879-.014a10.3,10.3,0,0,0,2.62-.362,4.641,4.641,0,0,0,3.563-5.6,4.028,4.028,0,0,0-3.15-3.219,15.33,15.33,0,0,0-5.89-.244c-.414.041-.549.2-.541.623C324,3025.152,323.983,3026.53,323.984,3027.908Z" transform="translate(-279.198 -3019.96)" fill="#019933"/>
      <path id="Path_967" data-name="Path 967" d="M214.87,3034.531c.155-.007.2-.136.26-.227,2.012-2.9,4.344-5.538,6.548-8.282,1.36-1.694,2.746-3.366,4.107-5.058a1.029,1.029,0,0,1,.907-.448c1.229.027,2.459.008,3.688.012.143,0,.339-.071.416.074s-.1.265-.189.372q-2.479,2.9-4.965,5.805c-1.654,1.936-3.3,3.88-4.965,5.805a.58.58,0,0,0-.044.847q5.378,7.89,10.729,15.8c.119.176.386.359.26.573-.1.17-.39.07-.6.072-1.064.006-2.13-.023-3.193.014a1.044,1.044,0,0,1-1.014-.554q-4.436-6.656-8.9-13.291c-.335-.5-.335-.5-.725-.049-.678.78-1.35,1.566-2.04,2.335a1.233,1.233,0,0,0-.331.89c.01,3.354.006,6.708.006,10.063,0,.59,0,.592-.6.594-.9,0-1.8-.016-2.7.007-.4.01-.55-.112-.545-.531.02-1.692.008-3.384.008-5.076v-23.045c0-.707,0-.707.713-.707q1.237,0,2.474,0c.648,0,.65,0,.65.635q0,6.424,0,12.848A1.022,1.022,0,0,0,214.87,3034.531Z" transform="translate(-210.978 -3020.304)" fill="#019933"/>
      <path id="Path_968" data-name="Path 968" d="M281.228,3052.023a11.994,11.994,0,0,1-1.406,6.187,9.769,9.769,0,0,1-7.481,5.01,10.4,10.4,0,0,1-6.1-.832,9.226,9.226,0,0,1-4.929-5.454,12.833,12.833,0,0,1,.4-9.924,9.464,9.464,0,0,1,7.607-5.556,10.6,10.6,0,0,1,6.075.738,9.609,9.609,0,0,1,5.554,7.116A10.493,10.493,0,0,1,281.228,3052.023Zm-4,0a9.353,9.353,0,0,0-.306-2.309,7.4,7.4,0,0,0-2.291-4.087,5.771,5.771,0,0,0-8.676,1.395,9.861,9.861,0,0,0-.216,10.2c2.295,4.221,7.738,4.23,10.2.1A10.015,10.015,0,0,0,277.232,3052.024Z" transform="translate(-241.93 -3033.302)" fill="#019933"/>
      <path id="Path_969" data-name="Path 969" d="M390.879,3052.031a11.989,11.989,0,0,1-1.4,6.181,9.759,9.759,0,0,1-7.477,5.017,10.329,10.329,0,0,1-6.465-1.005,9.319,9.319,0,0,1-4.733-5.735,12.869,12.869,0,0,1,.575-9.5,9.481,9.481,0,0,1,7.718-5.536,10.361,10.361,0,0,1,7.1,1.349,9.85,9.85,0,0,1,4.5,6.948A10.176,10.176,0,0,1,390.879,3052.031Zm-4,.524a10.408,10.408,0,0,0-1.11-5,5.559,5.559,0,0,0-5.46-3.25,5.783,5.783,0,0,0-5.3,3.816,10.638,10.638,0,0,0-.793,5.268,8.6,8.6,0,0,0,1.81,4.8,5.674,5.674,0,0,0,9.106-.179A9.041,9.041,0,0,0,386.881,3052.555Z" transform="translate(-310.46 -3033.312)" fill="#019933"/>
    </g>
    <path id="Path_970" data-name="Path 970" d="M262.927,2894.823c0-6.588.035-13.177-.018-19.766a4.586,4.586,0,0,1,4.583-4.571c8.306.049,16.613.018,24.92.019a4.459,4.459,0,0,1,4.626,4.62c.009,2.815,0,5.63,0,8.445q0,15.543,0,31.086a4.488,4.488,0,0,1-3.93,4.622,4.619,4.619,0,0,1-.717.039q-12.437,0-24.875,0a4.427,4.427,0,0,1-4.589-4.593Q262.927,2904.773,262.927,2894.823Zm26.017.074q0-4.941,0-9.883a4.323,4.323,0,0,0-4.406-4.417c-3.029-.009-6.057,0-9.086,0a4.42,4.42,0,0,0-4.437,4.4c.048,6.6.017,13.207.019,19.811a4.415,4.415,0,0,0,.07.983,4.278,4.278,0,0,0,4.171,3.371c3.074.012,6.149-.05,9.221.021a4.412,4.412,0,0,0,4.468-4.447C288.894,2901.457,288.944,2898.176,288.944,2894.9Z" transform="translate(-223.615 -2870.486)" fill="#019933"/>
    <path id="Path_971" data-name="Path 971" d="M293.2,2920.861c0-1.586-.011-3.173,0-4.759a4.149,4.149,0,0,1,3.3-4.065,3.223,3.223,0,0,1,.668-.068c1.169-.007,2.338-.016,3.506,0a4.107,4.107,0,0,1,3.881,3.482,9.707,9.707,0,0,1,.077,1.252c0,2.948,0,5.9,0,8.845a4.172,4.172,0,0,1-3.219,4.179,4.5,4.5,0,0,1-1.157.138,31.294,31.294,0,0,1-3.411-.068,4.138,4.138,0,0,1-3.638-4.176C293.194,2924.034,293.2,2922.447,293.2,2920.861Z" transform="translate(-242.544 -2896.405)" fill="#019933"/>
    <path id="Path_972" data-name="Path 972" d="M458.726,3153.6c-1.334,0-2.669,0-4,.017a.659.659,0,0,1-.614-.363c-1.6-2.515-3.311-4.959-4.822-7.53-.307-.522-.3-.516-.618.016-1.508,2.555-3.156,5.021-4.742,7.527a.662.662,0,0,1-.623.349c-1.124-.011-2.249,0-3.374-.007-.127,0-.3.057-.366-.09s.083-.243.156-.348q3.426-4.925,6.864-9.841a.671.671,0,0,0,.009-.911q-3.2-4.586-6.378-9.194c-.123-.177-.388-.363-.282-.57s.411-.091.625-.093c1.035-.01,2.07,0,3.1-.009a.7.7,0,0,1,.665.356c1.553,2.366,3.174,4.689,4.613,7.131.293.5.338.5.62.008,1.4-2.431,2.987-4.739,4.513-7.086a.8.8,0,0,1,.773-.41c1.064.019,2.129,0,3.194.009.128,0,.3-.062.372.073s-.087.24-.16.344q-3.172,4.5-6.348,9c-.661.94-.63.63-.025,1.522q3.329,4.909,6.683,9.8c.05.073.11.141.166.212Z" transform="translate(-334.004 -3034.251)" fill="#019933"/>
    <path id="Path_973" data-name="Path 973" d="M355.789,3128.541a13.838,13.838,0,0,1-.891,3.326,9.005,9.005,0,0,1-7.562,5.864,7.83,7.83,0,0,1-6.782-2.164,16.81,16.81,0,0,1-1.324-1.621c-.036.422-.08.844-.107,1.267-.037.582-.07,1.164-.09,1.747-.009.265-.128.374-.389.373-.855,0-1.709-.008-2.564,0-.329,0-.417-.165-.4-.451.078-1.03.058-2.064.116-3.094.05-.883.054-1.765.054-2.648q.006-11.971,0-23.943c0-.712,0-.712.719-.713q1.215,0,2.429,0c.654,0,.656,0,.656.641q0,5.952,0,11.9a1.221,1.221,0,0,0,.062.58c.177-.25.33-.478.5-.7a7.552,7.552,0,0,1,4.936-2.94,8.56,8.56,0,0,1,6.868,1.506,9.564,9.564,0,0,1,3.469,5.62,9.044,9.044,0,0,1,.286,1.751c.16-.074.13-.2.148-.3a10.017,10.017,0,0,1,9.626-8.715,10.632,10.632,0,0,1,5.211.948,9.26,9.26,0,0,1,5.06,6,12.874,12.874,0,0,1-.591,9.337,9.64,9.64,0,0,1-7.77,5.561,10.415,10.415,0,0,1-5.521-.608,9.441,9.441,0,0,1-5.4-5.52A12.506,12.506,0,0,1,355.789,3128.541Zm16.623-2.188a9.324,9.324,0,0,0-.721-3.479c-.906-2.27-2.418-3.847-4.987-4.091a5.561,5.561,0,0,0-5.178,2.1,10.3,10.3,0,0,0-.429,11.216,5.743,5.743,0,0,0,9.81.046A9.947,9.947,0,0,0,372.412,3126.352Zm-32.749.656c0,.614-.015,1.228,0,1.841a5.953,5.953,0,0,0,11.27,2.6,10.342,10.342,0,0,0,.111-9.118,5.456,5.456,0,0,0-4.951-3.411,6.059,6.059,0,0,0-6.267,4.955A16.772,16.772,0,0,0,339.662,3127.008Z" transform="translate(-269.094 -3017.974)" fill="#019933"/>
    <path id="Path_974" data-name="Path 974" d="M223.806,3140.89a11.585,11.585,0,0,1,2.335-5.815,9.689,9.689,0,0,1,6.516-3.615,10.769,10.769,0,0,1,6.11.831,9.236,9.236,0,0,1,5.108,6.009,12.874,12.874,0,0,1-.582,9.338,9.639,9.639,0,0,1-7.764,5.57,10.413,10.413,0,0,1-5.523-.6,9.434,9.434,0,0,1-5.408-5.514,10.658,10.658,0,0,1-.719-3c-.009-.1-.04-.2-.08-.389-.114.6-.189,1.124-.311,1.633a10.489,10.489,0,0,1-16.58,5.819,9.723,9.723,0,0,1-3.465-5.976,12.686,12.686,0,0,1,1.184-8.721,9.544,9.544,0,0,1,7.432-4.992,10.553,10.553,0,0,1,6.148.855,9.593,9.593,0,0,1,5.337,7.034C223.656,3139.859,223.721,3140.376,223.806,3140.89Zm-3.945.982a9.326,9.326,0,0,0-.723-3.472c-.907-2.27-2.422-3.844-4.99-4.086a5.559,5.559,0,0,0-5.176,2.106,10.3,10.3,0,0,0-.422,11.216,5.742,5.742,0,0,0,9.81.036A9.958,9.958,0,0,0,219.861,3141.872Zm20.595.435a8.6,8.6,0,0,0-.136-1.834,10,10,0,0,0-.573-2.074c-.92-2.264-2.425-3.843-4.993-4.085a5.559,5.559,0,0,0-5.176,2.105,10.3,10.3,0,0,0-.423,11.216,5.742,5.742,0,0,0,9.81.037A9.376,9.376,0,0,0,240.455,3142.307Z" transform="translate(-186.277 -3033.506)" fill="#019933"/>
    <path id="Path_975" data-name="Path 975" d="M170.938,3126.834q0,6.153,0,12.306c0,.728,0,.728-.749.728-.87,0-1.739-.014-2.608.006-.384.009-.546-.117-.53-.514.022-.523,0-1.048,0-1.572v-23.265c0-.72,0-.72-.712-.72h-7.555c-.641,0-.642,0-.644-.658,0-.688.018-1.378-.007-2.066-.015-.418.149-.539.553-.537,2.4.014,4.8.007,7.2.007h13.4c.63,0,.637.007.639.616q0,1.01,0,2.021c0,.606-.012.616-.641.616q-3.733,0-7.465,0c-.967,0-.882-.084-.882.858Q170.937,3120.748,170.938,3126.834Z" transform="translate(-158.138 -3020.509)" fill="#019933"/>
    <path id="Path_976" data-name="Path 976" d="M321.339,3121.961q0,7.341,0,14.683c0,.687,0,.688-.7.688-.869,0-1.739-.023-2.607.009-.466.017-.585-.16-.584-.6.014-3.353.008-6.705.008-10.058q0-9.745,0-19.488c0-.71,0-.71.725-.711q1.259,0,2.518,0c.637,0,.638,0,.638.658Q321.339,3114.552,321.339,3121.961Z" transform="translate(-257.7 -3017.973)" fill="#019933"/>
  </g>
</svg>
