<svg xmlns="http://www.w3.org/2000/svg" width="195.205" height="224.718" viewBox="0 0 195.205 224.718">
  <g id="zDMT5w" transform="translate(-363.656 -185.831)">
    <g id="Group_389" data-name="Group 389">
      <path id="Path_890" data-name="Path 890" d="M543.786,199.477c-2.634-4.425-2.238-8.608.957-11.351a8.075,8.075,0,0,1,12.748,9.2,7.928,7.928,0,0,1-8.705,4.79,1.969,1.969,0,0,0-2.343,1.016q-6.84,10-13.775,19.93a1.775,1.775,0,0,0-.142,2.17,7.658,7.658,0,0,1-.817,8.834,7.542,7.542,0,0,1-8.3,2.722c-3.354-.876-5.267-3.207-5.961-6.612a2.275,2.275,0,0,0-1.119-1.48c-3.121-1.239-6.3-2.326-9.442-3.519a1.345,1.345,0,0,0-1.8.409,7.753,7.753,0,0,1-8.787,2.523,1.324,1.324,0,0,0-1.756.543q-13.146,17.772-26.352,35.5a1.709,1.709,0,0,0-.088,2.043,8.036,8.036,0,0,1-4.155,10.983,8.15,8.15,0,0,1-10.793-5.015,2.24,2.24,0,0,0-1.374-1.247q-16.193-3.158-32.42-6.143a2.151,2.151,0,0,0-1.631.821,7.973,7.973,0,0,1-8.762,3.146,1.684,1.684,0,0,0-2.03.71q-7.32,9.031-14.678,18.033c-4.3,5.281-8.591,10.574-12.915,15.837a1.979,1.979,0,0,0-.4,2.54,7.878,7.878,0,0,1-2.26,9.787,8.049,8.049,0,0,1-12.221-9.826,7.942,7.942,0,0,1,9.236-4.3,1.775,1.775,0,0,0,2.178-.7Q389.7,283.781,403.6,266.8a1.789,1.789,0,0,0,.274-2.285,8.025,8.025,0,0,1,8.739-11.417,7.627,7.627,0,0,1,6.237,5.922,1.776,1.776,0,0,0,1.629,1.586q15.741,2.939,31.465,5.959a1.549,1.549,0,0,0,1.97-.814,7.713,7.713,0,0,1,9.168-3.742c1.034.288,1.446-.087,1.971-.8q9.024-12.213,18.087-24.4,4.017-5.413,8.05-10.817a1.876,1.876,0,0,0,.375-2.174,7.672,7.672,0,0,1,1.389-8.768,7.55,7.55,0,0,1,8.156-2.279,7.875,7.875,0,0,1,5.791,6.761,2.215,2.215,0,0,0,1.141,1.452c3.069,1.224,6.2,2.292,9.282,3.482a1.411,1.411,0,0,0,1.909-.516c2.175-2.642,5.012-3.4,8.326-2.758a1.73,1.73,0,0,0,1.451-.473C533.961,213.676,538.858,206.587,543.786,199.477ZM525.5,232.784a3.757,3.757,0,1,0-.1-7.514,3.757,3.757,0,0,0,.1,7.514ZM414.817,261.193a3.807,3.807,0,0,0-3.625-3.988,3.884,3.884,0,0,0-3.9,3.583,3.776,3.776,0,0,0,3.492,3.93A3.708,3.708,0,0,0,414.817,261.193Zm84.112-44.425a3.73,3.73,0,0,0-3.83,3.752,3.867,3.867,0,0,0,3.71,3.76,3.8,3.8,0,0,0,3.805-3.8A3.679,3.679,0,0,0,498.929,216.768ZM371.758,305.56a3.791,3.791,0,0,0-3.826,3.618,3.869,3.869,0,0,0,3.732,3.9,3.781,3.781,0,0,0,3.793-3.644A3.72,3.72,0,0,0,371.758,305.56Zm89.054-32.088a3.764,3.764,0,0,0,3.834-3.766,3.774,3.774,0,1,0-3.834,3.766Zm89.29-83.016a3.757,3.757,0,1,0,3.7,3.743A3.789,3.789,0,0,0,550.1,190.456Z" fill="#019933"/>
      <path id="Path_891" data-name="Path 891" d="M408.567,274.175c.508-.625,1.078-1.345,1.668-2.048,1.163-1.387,2.23-1.212,2.936.521.939,2.3,1.5,4.843,2.82,6.9,2.112,3.288,1.913,6.15,0,9.414a103.137,103.137,0,0,0-4.627,9.664,1.714,1.714,0,0,0,.119,1.529c3.3,3.344,6.639,6.653,10.062,9.87a2.257,2.257,0,0,0,1.987.006c4.182-2.039,8.328-4.155,12.459-6.3a3.419,3.419,0,0,1,3.227-.029q4.614,2,9.346,3.723a3.41,3.41,0,0,1,2.349,2.212c1.466,4.25,3.061,8.457,4.49,12.719.439,1.309,1.022,1.962,2.478,1.923,4.111-.11,8.224-.118,12.337-.16a2.209,2.209,0,0,0,2.389-1.856c1.282-4.309,2.782-8.552,4.125-12.843a3.542,3.542,0,0,1,2.326-2.444c3.12-1.229,6.2-2.563,9.244-3.971a3.422,3.422,0,0,1,3.226-.063q6.348,3.08,12.767,6.009a2.077,2.077,0,0,0,1.846-.117c3.255-3.216,6.406-6.539,9.616-9.8a1.608,1.608,0,0,0,.161-2.17c-2.108-4.086-4.147-8.208-6.281-12.28a3.642,3.642,0,0,1-.051-3.515c1.355-3.065,2.556-6.2,3.706-9.349a3.285,3.285,0,0,1,2.134-2.221c4.348-1.516,8.664-3.127,13.025-4.6,1.086-.368,1.646-.87,1.624-2.027-.087-4.491-.108-8.984-.289-13.47-.02-.5-.821-1.205-1.4-1.4q-6.6-2.278-13.276-4.366a3.359,3.359,0,0,1-2.289-2.257c-1.2-3.071-2.574-6.076-3.877-9.107-.227-.527-.449-1.057-.7-1.649a7.021,7.021,0,0,1,6.691,4.162,5.011,5.011,0,0,1,.423,1.053c.533,3.224,2.664,4.517,5.654,5.259,3.46.859,6.78,2.269,10.216,3.244a3.39,3.39,0,0,1,2.739,3.3,76.947,76.947,0,0,1,.153,18.168,2.583,2.583,0,0,1-1.971,2.295c-4.546,1.608-9.068,3.286-13.625,4.861a2.452,2.452,0,0,0-1.667,1.731c-.84,2.341-1.89,4.608-2.705,6.958a3.424,3.424,0,0,0,.079,2.356q3.059,6.461,6.333,12.817a2.813,2.813,0,0,1-.3,3.287,68.418,68.418,0,0,1-12.682,13.18,2.892,2.892,0,0,1-3.435.407c-4.337-2.093-8.684-4.168-13.072-6.149a3.187,3.187,0,0,0-2.215.074c-2.322.895-4.619,1.871-6.856,2.96a3.42,3.42,0,0,0-1.628,1.718q-2.327,6.674-4.418,13.428a2.987,2.987,0,0,1-2.722,2.349,77.007,77.007,0,0,1-18.168.3,3,3,0,0,1-2.846-2.219c-1.536-4.456-3.169-8.879-4.714-13.332a2.589,2.589,0,0,0-1.83-1.8,71.073,71.073,0,0,1-6.635-2.641,2.926,2.926,0,0,0-2.87.05c-4.176,2.187-8.4,4.271-12.593,6.437a2.57,2.57,0,0,1-3.021-.118,66.185,66.185,0,0,1-13.5-13.263,2.931,2.931,0,0,1-.23-3.435c2.06-4.233,4.071-8.491,6-12.784a3.172,3.172,0,0,0-.049-2.2c-.909-2.375-1.941-4.7-2.979-7.027A14.46,14.46,0,0,0,408.567,274.175Z" fill="#019933"/>
      <path id="Path_892" data-name="Path 892" d="M558.86,367.113q0,20.23,0,40.462c0,2.351-.606,2.957-3.008,2.959q-16.665.017-33.33,0c-2.259,0-2.887-.652-2.888-2.929q-.009-40.322,0-80.644c0-2.482.617-3.111,3.045-3.113q16.584-.01,33.168,0c2.411,0,3.023.63,3.018,3.118q-.036,17.963-.089,35.924c0,1.408,0,2.815,0,4.223Zm-34.833,39.041h30.5V328.232h-30.5Z" fill="#019933"/>
      <path id="Path_893" data-name="Path 893" d="M517.674,220.05l-3.91-1.43a6.748,6.748,0,0,1,.6-1.518c1.1-1.517.728-2.7-.565-3.911-2.846-2.662-5.634-5.387-8.411-8.121a2.3,2.3,0,0,0-3.139-.375c-3.911,2.106-7.92,4.029-11.858,6.084a3.646,3.646,0,0,1-3.521.028c-2.908-1.307-5.869-2.528-8.89-3.542a3.986,3.986,0,0,1-2.841-2.75c-1.424-4.207-3.023-8.355-4.441-12.563a2,2,0,0,0-2.182-1.64c-4.382.094-8.766.116-13.144.294a2.19,2.19,0,0,0-1.5,1.276q-2.289,6.6-4.364,13.274a3.647,3.647,0,0,1-2.479,2.5,89.308,89.308,0,0,0-8.647,3.709,4.246,4.246,0,0,1-4.256.024c-4.027-2-8.128-3.847-12.174-5.809a1.5,1.5,0,0,0-2.007.235q-4.508,4.45-9.08,8.834c-.706.677-.549,1.238-.129,1.986,2.251,4.018,4.43,8.075,6.692,12.086a3.3,3.3,0,0,1-.048,3.331c-1.6,3.6-3.063,7.269-4.43,10.967a3.677,3.677,0,0,1-2.577,2.589c-4.3,1.308-8.554,2.769-12.844,4.113a1.855,1.855,0,0,0-1.5,1.779,45.518,45.518,0,0,0,.374,13.6c.115.658.779,1.221,1.372,2.1a30.425,30.425,0,0,1-2.164,2.64c-.917.924-2.886-.182-3.126-1.877a81.616,81.616,0,0,1-1.039-9.686c-.066-3.124.389-6.26.635-9.39a2.773,2.773,0,0,1,2.231-2.626q6.676-2.061,13.285-4.334a3.048,3.048,0,0,0,1.612-1.519c1.337-3.131,2.576-6.307,3.752-9.5a2.434,2.434,0,0,0-.246-1.756c-2.153-4.009-4.312-8.017-6.594-11.953-.91-1.57-.851-2.84.422-4.078q6.107-5.943,12.224-11.874a2.643,2.643,0,0,1,3.291-.35c4.248,2.043,8.529,4.018,12.767,6.079a2.792,2.792,0,0,0,2.729-.016c2.19-1.061,4.495-1.885,6.683-2.949a3.414,3.414,0,0,0,1.628-1.717c1.523-4.4,2.958-8.834,4.336-13.283a3.18,3.18,0,0,1,2.95-2.515,78.123,78.123,0,0,1,18.166-.246,2.871,2.871,0,0,1,2.674,2.185c1.566,4.5,3.165,8.994,4.849,13.452a3.17,3.17,0,0,0,1.57,1.568c2.371,1.054,4.794,2,7.234,2.886a2.737,2.737,0,0,0,1.926-.029c4.232-2.074,8.447-4.185,12.608-6.4a3.369,3.369,0,0,1,4.143.382,79.791,79.791,0,0,1,12.555,12.221,3.225,3.225,0,0,1,.466,4.13C518.721,217.708,518.249,218.86,517.674,220.05Z" fill="#019933"/>
      <path id="Path_894" data-name="Path 894" d="M508.031,371.86q0,17.72,0,35.44c0,2.718-.517,3.242-3.223,3.244q-16.419.008-32.838,0c-2.582,0-3.168-.584-3.169-3.15q-.008-19.908,0-39.816,0-15.759,0-31.519c0-2.783.564-3.358,3.3-3.358q16.338,0,32.676,0c2.664,0,3.257.592,3.258,3.233Q508.035,353.9,508.031,371.86Zm-4.344,34.316c.029-.574.064-.946.064-1.318q0-33.092.029-66.182c0-1.366-.409-1.733-1.745-1.725q-13.578.08-27.156,0c-1.415-.01-1.841.345-1.833,1.8.063,10.285.032,20.572.032,30.858q0,17.064,0,34.128v2.44Z" fill="#019933"/>
      <path id="Path_895" data-name="Path 895" d="M457.213,377.2q0,15.04,0,30.082c0,2.7-.565,3.261-3.224,3.26q-16.422-.006-32.845-.009c-2.582,0-3.158-.577-3.158-3.139q0-30.245,0-60.488c0-2.572.6-3.186,3.134-3.188q16.422-.009,32.845,0c2.661,0,3.259.617,3.259,3.25q0,15.117,0,30.235Zm-4.323-29.093H422.368v58H452.89Z" fill="#019933"/>
      <path id="Path_896" data-name="Path 896" d="M367.277,381.434q0-12.918,0-25.836c0-2.075.605-2.694,2.726-2.7q16.744-.023,33.489,0c2.149,0,2.855.7,2.856,2.811q.013,26.01,0,52.021c0,2.181-.623,2.808-2.819,2.811q-16.743.018-33.488,0c-2.283,0-2.862-.617-2.863-2.932q-.009-13.086,0-26.173ZM402,406.173V357.312H371.511v48.861Z" fill="#019933"/>
      <path id="Path_897" data-name="Path 897" d="M427.782,270.667c1.529.288,2.97.473,4.351.869.458.131.849.756,1.119,1.24,6.595,11.817,16.687,18.2,30.173,18.069s23.654-6.588,29.766-18.657c5.138-10.146,4.815-20.51-.436-30.6-.841-1.616-.889-2.706.375-3.936a12.908,12.908,0,0,0,1.174-1.539c6.68,8.632,9.529,23.866,3.2,37.144-6.916,14.5-21.8,23.163-37.121,21.9C443.263,293.74,431.607,281.942,427.782,270.667Z" fill="#019933"/>
      <path id="Path_898" data-name="Path 898" d="M429.324,257.781a1.7,1.7,0,0,1-.426.061c-4.526-.868-3.885-.015-3.492-4.249a36.145,36.145,0,0,1,9.626-21.751c10.777-11.619,26.863-15.7,41.738-9.862,2.932,1.151,5.665,2.81,8.723,4.353l-2.548,3.45A34.045,34.045,0,0,0,429.324,257.781Z" fill="#019933"/>
    </g>
  </g>
</svg>
