<svg xmlns="http://www.w3.org/2000/svg" width="143.581" height="165.29" viewBox="0 0 143.581 165.29">
  <g id="zDMT5w" transform="translate(3686.207 1656.86)">
    <g id="Group_13" data-name="Group 13">
      <path id="Path_27" data-name="Path 27" d="M-3553.714-1646.823c-1.937-3.255-1.646-6.332.7-8.349a5.961,5.961,0,0,1,7.32-.368,5.991,5.991,0,0,1,2.057,7.138,5.833,5.833,0,0,1-6.4,3.523,1.448,1.448,0,0,0-1.723.747q-5.031,7.353-10.133,14.659a1.307,1.307,0,0,0-.1,1.6,5.632,5.632,0,0,1-.6,6.5,5.546,5.546,0,0,1-6.106,2,5.8,5.8,0,0,1-4.384-4.863,1.679,1.679,0,0,0-.823-1.089c-2.3-.911-4.636-1.71-6.945-2.588a.989.989,0,0,0-1.327.3,5.7,5.7,0,0,1-6.463,1.856.974.974,0,0,0-1.292.4q-9.669,13.072-19.383,26.112a1.255,1.255,0,0,0-.064,1.5,5.911,5.911,0,0,1-3.057,8.078,6,6,0,0,1-7.939-3.688,1.644,1.644,0,0,0-1.01-.917q-11.912-2.324-23.847-4.519a1.579,1.579,0,0,0-1.2.6,5.868,5.868,0,0,1-6.445,2.314,1.239,1.239,0,0,0-1.493.522q-5.383,6.644-10.8,13.264c-3.165,3.885-6.319,7.777-9.5,11.649a1.456,1.456,0,0,0-.294,1.868,5.8,5.8,0,0,1-1.662,7.2,5.929,5.929,0,0,1-7.416-.082,5.9,5.9,0,0,1-1.573-7.145,5.841,5.841,0,0,1,6.793-3.162,1.3,1.3,0,0,0,1.6-.517q10.169-12.534,20.393-25.022a1.317,1.317,0,0,0,.2-1.681,5.547,5.547,0,0,1,.606-6.188,5.563,5.563,0,0,1,5.822-2.21,5.611,5.611,0,0,1,4.587,4.356,1.308,1.308,0,0,0,1.2,1.167q11.578,2.162,23.144,4.383a1.14,1.14,0,0,0,1.449-.6,5.671,5.671,0,0,1,6.743-2.752c.761.211,1.064-.065,1.45-.587q6.638-8.984,13.3-17.946,2.956-3.982,5.922-7.957a1.381,1.381,0,0,0,.276-1.6,5.642,5.642,0,0,1,1.022-6.449,5.553,5.553,0,0,1,6-1.677,5.8,5.8,0,0,1,4.26,4.974,1.635,1.635,0,0,0,.839,1.068c2.257.9,4.56,1.685,6.827,2.561a1.039,1.039,0,0,0,1.405-.38,5.9,5.9,0,0,1,6.124-2.029,1.273,1.273,0,0,0,1.067-.347C-3560.94-1636.379-3557.338-1641.594-3553.714-1646.823Zm-13.447,24.5a2.778,2.778,0,0,0,2.734-2.739,2.774,2.774,0,0,0-2.806-2.788,2.749,2.749,0,0,0-2.721,2.86A2.746,2.746,0,0,0-3567.161-1622.325Zm-81.415,20.9a2.8,2.8,0,0,0-2.666-2.933,2.858,2.858,0,0,0-2.868,2.635,2.778,2.778,0,0,0,2.569,2.891A2.727,2.727,0,0,0-3648.576-1601.429Zm61.868-32.676a2.744,2.744,0,0,0-2.817,2.76,2.844,2.844,0,0,0,2.729,2.766,2.794,2.794,0,0,0,2.8-2.8A2.7,2.7,0,0,0-3586.708-1634.1Zm-93.539,65.31a2.789,2.789,0,0,0-2.815,2.662,2.846,2.846,0,0,0,2.746,2.871,2.78,2.78,0,0,0,2.789-2.68A2.736,2.736,0,0,0-3680.247-1568.8Zm65.5-23.6a2.769,2.769,0,0,0,2.819-2.77,2.811,2.811,0,0,0-2.724-2.76,2.818,2.818,0,0,0-2.825,2.661A2.8,2.8,0,0,0-3614.744-1592.4Zm65.676-61.061a2.787,2.787,0,0,0-2.826,2.654,2.789,2.789,0,0,0,2.726,2.872,2.776,2.776,0,0,0,2.82-2.774A2.776,2.776,0,0,0-3549.068-1653.458Z" fill="#019933"/>
      <path id="Path_28" data-name="Path 28" d="M-3653.173-1591.88c.374-.46.793-.989,1.227-1.506.855-1.021,1.641-.891,2.159.383a30.524,30.524,0,0,0,2.075,5.074c1.553,2.418,1.407,4.523,0,6.924a75.653,75.653,0,0,0-3.4,7.109,1.258,1.258,0,0,0,.088,1.124c2.427,2.46,4.883,4.893,7.4,7.26a1.662,1.662,0,0,0,1.462.005c3.076-1.5,6.126-3.057,9.164-4.633a2.514,2.514,0,0,1,2.374-.021q3.393,1.471,6.874,2.738a2.507,2.507,0,0,1,1.728,1.627c1.078,3.126,2.251,6.22,3.3,9.355.323.963.752,1.443,1.823,1.415,3.024-.081,6.049-.087,9.075-.118a1.623,1.623,0,0,0,1.756-1.365c.943-3.169,2.047-6.29,3.035-9.447a2.606,2.606,0,0,1,1.711-1.8c2.294-.9,4.561-1.886,6.8-2.921a2.514,2.514,0,0,1,2.372-.046q4.67,2.265,9.391,4.42a1.53,1.53,0,0,0,1.358-.087c2.4-2.365,4.712-4.809,7.073-7.209a1.183,1.183,0,0,0,.119-1.6c-1.551-3.005-3.05-6.037-4.621-9.032a2.682,2.682,0,0,1-.037-2.586c1-2.254,1.88-4.561,2.726-6.876a2.415,2.415,0,0,1,1.57-1.633c3.2-1.116,6.372-2.3,9.58-3.387.8-.271,1.211-.64,1.194-1.491-.064-3.3-.079-6.608-.212-9.908-.015-.367-.6-.886-1.03-1.033q-4.859-1.677-9.765-3.212a2.471,2.471,0,0,1-1.684-1.659c-.884-2.259-1.894-4.47-2.852-6.7-.167-.387-.33-.777-.515-1.212a5.161,5.161,0,0,1,4.922,3.061,3.672,3.672,0,0,1,.311.775c.392,2.371,1.959,3.322,4.159,3.868,2.545.632,4.987,1.669,7.514,2.386a2.5,2.5,0,0,1,2.015,2.427,56.626,56.626,0,0,1,.112,13.363,1.9,1.9,0,0,1-1.449,1.689c-3.344,1.182-6.67,2.416-10.022,3.575a1.8,1.8,0,0,0-1.226,1.273c-.618,1.722-1.391,3.39-1.99,5.118a2.51,2.51,0,0,0,.058,1.733q2.25,4.752,4.658,9.428a2.069,2.069,0,0,1-.217,2.417,50.379,50.379,0,0,1-9.328,9.695,2.128,2.128,0,0,1-2.527.3c-3.191-1.539-6.388-3.066-9.615-4.523a2.345,2.345,0,0,0-1.629.055c-1.708.658-3.4,1.376-5.044,2.177a2.52,2.52,0,0,0-1.2,1.263q-1.712,4.91-3.25,9.877a2.2,2.2,0,0,1-2,1.728,56.623,56.623,0,0,1-13.363.223,2.209,2.209,0,0,1-2.093-1.632c-1.13-3.278-2.331-6.531-3.468-9.806a1.9,1.9,0,0,0-1.346-1.325c-1.657-.56-3.286-1.219-4.88-1.942a2.151,2.151,0,0,0-2.111.036c-3.071,1.609-6.182,3.142-9.263,4.735a1.892,1.892,0,0,1-2.222-.087,48.708,48.708,0,0,1-9.93-9.756,2.156,2.156,0,0,1-.168-2.526q2.272-4.671,4.414-9.4a2.341,2.341,0,0,0-.036-1.621c-.669-1.747-1.429-3.46-2.192-5.169A10.725,10.725,0,0,0-3653.173-1591.88Z" fill="#019933"/>
      <path id="Path_29" data-name="Path 29" d="M-3542.626-1523.52q0,14.88,0,29.761c0,1.73-.445,2.176-2.212,2.177q-12.258.012-24.516,0c-1.661,0-2.123-.479-2.124-2.154q-.008-29.658,0-59.317c0-1.826.454-2.289,2.24-2.29q12.2-.008,24.4,0c1.774,0,2.224.463,2.22,2.294q-.026,13.212-.065,26.423c0,1.036,0,2.071,0,3.106Zm-25.621,28.716h22.435v-57.314h-22.435Z" fill="#019933"/>
      <path id="Path_30" data-name="Path 30" d="M-3572.92-1631.691l-2.876-1.052a4.966,4.966,0,0,1,.442-1.116c.811-1.116.535-1.988-.416-2.877-2.093-1.958-4.144-3.962-6.187-5.973a1.689,1.689,0,0,0-2.309-.276c-2.876,1.549-5.825,2.963-8.721,4.475a2.681,2.681,0,0,1-2.59.021c-2.139-.962-4.317-1.86-6.539-2.6a2.933,2.933,0,0,1-2.09-2.023c-1.047-3.1-2.223-6.146-3.267-9.241a1.469,1.469,0,0,0-1.6-1.207c-3.223.07-6.448.086-9.668.217a1.612,1.612,0,0,0-1.1.939q-1.683,4.854-3.21,9.763a2.683,2.683,0,0,1-1.823,1.839,65.39,65.39,0,0,0-6.36,2.728,3.123,3.123,0,0,1-3.131.018c-2.962-1.471-5.979-2.83-8.955-4.273a1.1,1.1,0,0,0-1.475.173q-3.316,3.273-6.68,6.5c-.519.5-.4.91-.1,1.461,1.656,2.954,3.259,5.939,4.923,8.889a2.428,2.428,0,0,1-.035,2.45c-1.18,2.648-2.254,5.347-3.259,8.067a2.7,2.7,0,0,1-1.9,1.9c-3.163.962-6.291,2.037-9.447,3.025a1.365,1.365,0,0,0-1.1,1.309,33.479,33.479,0,0,0,.275,10c.085.484.573.9,1.009,1.543a22.22,22.22,0,0,1-1.592,1.942c-.674.679-2.122-.134-2.3-1.381a60.141,60.141,0,0,1-.764-7.124c-.049-2.3.286-4.605.467-6.907a2.04,2.04,0,0,1,1.641-1.932q4.911-1.515,9.772-3.188a2.235,2.235,0,0,0,1.185-1.117c.984-2.3,1.9-4.639,2.76-6.99a1.784,1.784,0,0,0-.181-1.291c-1.583-2.949-3.172-5.9-4.85-8.792a2.172,2.172,0,0,1,.311-3q4.491-4.371,8.991-8.734a1.946,1.946,0,0,1,2.421-.257c3.124,1.5,6.273,2.956,9.39,4.472a2.057,2.057,0,0,0,2.008-.013c1.61-.78,3.306-1.386,4.915-2.169a2.5,2.5,0,0,0,1.2-1.262c1.121-3.237,2.176-6.5,3.19-9.77a2.339,2.339,0,0,1,2.169-1.851,57.48,57.48,0,0,1,13.362-.181,2.115,2.115,0,0,1,1.968,1.608c1.151,3.311,2.327,6.615,3.566,9.9a2.338,2.338,0,0,0,1.154,1.153c1.745.775,3.527,1.471,5.322,2.122a2.01,2.01,0,0,0,1.416-.021c3.113-1.525,6.213-3.078,9.274-4.7a2.48,2.48,0,0,1,3.048.28,58.718,58.718,0,0,1,9.234,8.989,2.372,2.372,0,0,1,.343,3.038C-3572.15-1633.413-3572.5-1632.566-3572.92-1631.691Z" fill="#019933"/>
      <path id="Path_31" data-name="Path 31" d="M-3580.013-1520.028q0,13.033,0,26.067c0,2-.38,2.385-2.37,2.386q-12.077.006-24.154,0c-1.9,0-2.33-.429-2.331-2.316q-.006-14.645,0-29.287,0-11.592,0-23.184c0-2.047.415-2.469,2.426-2.47q12.018,0,24.035,0c1.959,0,2.4.435,2.4,2.378Q-3580.01-1533.242-3580.013-1520.028Zm-3.2,25.241c.021-.423.047-.7.047-.97q0-24.341.021-48.68c0-1-.3-1.274-1.284-1.268q-9.985.057-19.973,0c-1.042-.007-1.355.254-1.349,1.326.046,7.565.024,15.131.023,22.7v26.9Z" fill="#019933"/>
      <path id="Path_32" data-name="Path 32" d="M-3617.392-1516.1q0,11.064,0,22.127c0,1.988-.416,2.4-2.371,2.4q-12.079,0-24.16-.007c-1.9,0-2.322-.424-2.322-2.309q0-22.245,0-44.491c0-1.892.44-2.344,2.3-2.345q12.08-.006,24.159,0c1.957,0,2.4.454,2.4,2.39q0,11.12,0,22.239Zm-3.18-21.4h-22.45v42.662h22.45Z" fill="#019933"/>
      <path id="Path_33" data-name="Path 33" d="M-3683.543-1512.986q0-9.5,0-19c0-1.526.445-1.982,2.005-1.984q12.316-.016,24.632,0c1.581,0,2.1.515,2.1,2.068q.009,19.131,0,38.263c0,1.6-.459,2.066-2.074,2.068q-12.316.014-24.632,0c-1.68,0-2.1-.453-2.106-2.156q-.006-9.625,0-19.251Zm25.538,18.2v-35.939h-22.424v35.939Z" fill="#019933"/>
      <path id="Path_34" data-name="Path 34" d="M-3639.04-1594.46c1.125.212,2.185.348,3.2.639.337.1.625.556.823.912,4.851,8.692,12.274,13.384,22.193,13.291s17.4-4.846,21.894-13.723c3.78-7.463,3.542-15.086-.321-22.51-.618-1.188-.653-1.99.276-2.9a9.416,9.416,0,0,0,.864-1.132c4.914,6.349,7.009,17.555,2.351,27.321a27.97,27.97,0,0,1-27.3,16.107A27.708,27.708,0,0,1-3639.04-1594.46Z" fill="#019933"/>
      <path id="Path_35" data-name="Path 35" d="M-3637.905-1603.938a1.266,1.266,0,0,1-.314.045c-3.329-.639-2.858-.011-2.568-3.126a26.585,26.585,0,0,1,7.08-16,27.621,27.621,0,0,1,30.7-7.254c2.157.846,4.167,2.067,6.416,3.2l-1.874,2.538A25.04,25.04,0,0,0-3637.905-1603.938Z" fill="#019933"/>
    </g>
  </g>
</svg>
