<svg xmlns="http://www.w3.org/2000/svg" width="121.649" height="101.838" viewBox="0 0 121.649 101.838">
  <g id="Y3LZMQ" transform="translate(0 0)">
    <g id="Group_403" data-name="Group 403">
      <path id="Path_963" data-name="Path 963" d="M2070.419,537.577q0-7.387.006-14.774a14.074,14.074,0,0,1,.12-1.673,1.719,1.719,0,0,1,1.626-1.642,12.979,12.979,0,0,1,1.553-.117q7.448-.014,14.895,0a9.626,9.626,0,0,1,1.2.084,1.882,1.882,0,0,1,1.818,2c.063,1.428.084,1.431,1.5,1.082,5.826-1.441,11.647-2.9,17.479-4.32a70.019,70.019,0,0,1,13-2.187,11.875,11.875,0,0,1,8.45,2.373c5,4,10.053,7.944,15.216,11.733,2.219,1.629,3.834,3.451,4.281,6.211a8.279,8.279,0,0,1-.26,3.563c-.639,2.32-.918,4.711-1.456,7.049a1.681,1.681,0,0,0,.584,1.593,19.3,19.3,0,0,1,5.121,13.227A18.664,18.664,0,0,1,2138.489,580a18.466,18.466,0,0,1-19.872-15.178,5.59,5.59,0,0,0-3.479-4.823c-1.379-.624-2.632-1.52-3.953-2.274a19.437,19.437,0,0,0-5.566-2.175c-4.342-.942-8.635-2.084-12.894-3.343-.93-.275-1.175-.074-1.206.882-.07,2.129-.833,2.8-3.021,2.8q-7.627.013-15.254,0c-2.11,0-2.807-.676-2.817-2.82C2070.4,547.907,2070.418,542.742,2070.419,537.577Zm20.928-.329c0,3.042.024,6.084-.016,9.125a1.293,1.293,0,0,0,1.122,1.523c1.748.422,3.469.956,5.209,1.417,6.875,1.823,13.906,3.23,19.851,7.505.752.541,1,.178,1.223-.551a19.628,19.628,0,0,1,5.306-8.716c.572-.542.506-.859-.028-1.33-1.59-1.4-3.176-2.812-4.719-4.265-1.1-1.038-.986-2.437.378-3.044a19.762,19.762,0,0,0,7.053-5.644c1.012-1.2,2.413-1.042,3.321.283a9.967,9.967,0,0,0,1.511,1.855,17.808,17.808,0,0,0,6.075,3.3c1.676.6,2.186,1.335,1.894,3.078-.14.834.213,1.076.883,1.224a21.535,21.535,0,0,1,4.638,1.615c.745.355.965.151,1.094-.586.325-1.888.625-3.78,1.038-5.656a4.257,4.257,0,0,0-1.6-4.6q-8.271-6.281-16.517-12.593a5.627,5.627,0,0,0-2.479-1.128,22.378,22.378,0,0,0-7.867.413c-8.91,1.57-17.583,4.177-26.4,6.146-.8.179-.985.651-.981,1.381C2091.355,531.084,2091.344,534.166,2091.347,537.247Zm60.24,24.078a14.726,14.726,0,1,0-14.8,14.655A14.81,14.81,0,0,0,2151.587,561.326Zm-64.1-23.478c0-4.324-.024-8.649.018-12.972.01-1.081-.341-1.495-1.452-1.477-3.362.051-6.726.046-10.089,0-1.046-.013-1.493.278-1.517,1.418-.069,3.2-.016,6.392,0,9.589.034,5.432-.044,10.866-.115,16.3-.013.923.254,1.273,1.221,1.26q5.284-.071,10.57,0c1.063.016,1.387-.354,1.376-1.39C2087.462,546.336,2087.487,542.092,2087.49,537.848Zm40.958,6.781c.13-.049.32-.109.5-.19a19.309,19.309,0,0,1,5.756-1.613c.264-.03.624.024.634-.378.009-.347-.326-.417-.575-.527a19.72,19.72,0,0,1-6.182-3.851.61.61,0,0,0-1.016.008,15.142,15.142,0,0,1-2.867,2.362c-.555.354-.45.618-.021,1,1.02.9,2.006,1.839,3.008,2.76A1.12,1.12,0,0,0,2128.449,544.629Z" transform="translate(-2070.413 -516)" fill="#019933"/>
      <path id="Path_964" data-name="Path 964" d="M2195.189,606.229q0,9.188,0,18.375c0,2.127-.575,2.7-2.709,2.708q-7.325.011-14.651,0c-2.582,0-3.4-.827-3.1-3.451.138-1.218-.271-1.276-1.324-1.385-5.818-.6-11.2,1.517-16.739,2.584-4.866.938-9.672,2.2-14.5,3.355a8.952,8.952,0,0,1-5.519-.354c-7.645-2.975-15.315-5.886-22.976-8.819q-8.914-3.412-17.828-6.82c-4.865-1.853-6.934-6.93-4.6-11.322a7.88,7.88,0,0,1,8.409-4.006q12.865,2.674,25.707,5.447c.791.17,1.129.024,1.395-.765a8.27,8.27,0,0,1,8.206-6,22.981,22.981,0,0,1,2.881.005c5.917.61,11.4-1.05,16.816-3.121a7.329,7.329,0,0,0,.784-.3c3.928-2.05,8.138-2.433,12.477-2.2,1.875.1,3.762-.006,5.644.027.771.013,1.117-.269,1.055-1.052-.032-.4-.006-.8-.006-1.2,0-2.482.521-2.993,3.053-2.993l12.97,0c.64,0,1.281-.014,1.921.005,1.856.052,2.62.816,2.623,2.663Q2195.2,596.921,2195.189,606.229Zm-20.57-.107c0-3.644-.029-7.287.019-10.93.014-1.011-.347-1.313-1.323-1.3-3.242.049-6.486.045-9.729.02a9.149,9.149,0,0,0-3.735.754c-3.537,1.519-7.219,2.624-10.863,3.842a20.271,20.271,0,0,1-7.538,1.148c-2.236-.114-4.482-.02-6.725-.021a4.235,4.235,0,0,0-2.8.891,4.446,4.446,0,0,0-1.42,4.98,4.213,4.213,0,0,0,4.1,2.951c4.564.032,9.129.006,13.693.024,1.464.006,2.236.687,2.269,1.911.035,1.283-.751,2.02-2.269,2.025-4.6.016-9.211.071-13.814-.019a7.981,7.981,0,0,1-7.187-4.46,2.718,2.718,0,0,0-2.053-1.56c-5.685-1.148-11.356-2.368-17.032-3.563-2.935-.618-5.864-1.276-8.809-1.847-3.375-.654-5.622,1.359-5.121,4.534a4.043,4.043,0,0,0,2.932,3.183q20.575,7.879,41.145,15.771a4.26,4.26,0,0,0,2.583.185c5.844-1.362,11.688-2.728,17.543-4.044,4.948-1.112,9.844-2.6,15.009-2.3.934.054,1.143-.412,1.137-1.243C2174.6,613.409,2174.617,609.765,2174.619,606.122Zm3.948-.126c0,5.32.026,10.639-.022,15.958-.01,1.109.347,1.451,1.445,1.431,3.278-.061,6.559-.05,9.838-.006,1,.013,1.361-.39,1.349-1.341-.026-2.076,0-4.153-.014-6.229-.029-3.791-.139-7.582-.094-11.373.057-4.829.082-9.657,0-14.488-.013-.875-.3-1.073-1.1-1.065-3.32.034-6.64.061-9.958-.011-1.194-.026-1.482.408-1.471,1.526C2178.589,595.6,2178.563,600.8,2178.566,606Z" transform="translate(-2073.542 -526.855)" fill="#019933"/>
    </g>
  </g>
</svg>
