<svg xmlns="http://www.w3.org/2000/svg" width="153.862" height="153.846" viewBox="0 0 153.862 153.846">
  <g id="ugc3qq" transform="translate(3935.427 1643.417)">
    <g id="Group_14" data-name="Group 14">
      <path id="Path_36" data-name="Path 36" d="M-3790.417-1574.038a6.7,6.7,0,0,1-2.355,5.121q-6.669,6.093-13.377,12.143c-3.809,3.454-7.611,6.916-11.438,10.349-.562.505-.193.741.13,1.069q7.539,7.648,15.074,15.3,5.885,5.988,11.75,11.994a2.378,2.378,0,0,1,0,3.8q-11.949,11.734-23.921,23.447a2.341,2.341,0,0,1-3.552-.026q-8.691-8.787-17.35-17.6-5.414-5.495-10.827-10.99c-.456-.466-.754-.4-1.194.006q-6.943,6.363-13.912,12.7c-1.134,1.033-2.269,2.065-3.415,3.085a3.073,3.073,0,0,1-.775.513q-13.8,6.084-27.6,12.154c-.884.389-1.764.785-2.652,1.164a2.219,2.219,0,0,1-2.665-.431,2.282,2.282,0,0,1-.4-2.692c.639-1.268,1.356-2.5,2.054-3.732q6.953-12.321,13.906-24.639a5.077,5.077,0,0,1,.982-1.275q8.125-7.469,16.249-14.939c.831-.763.846-.743.079-1.517q-11.942-12.045-23.882-24.092c-1.585-1.6-1.581-2.71.014-4.278q11.674-11.47,23.351-22.936c1.529-1.5,2.714-1.491,4.234.057q12.363,12.588,24.719,25.182c.82.835.839.85,1.713.056,4.754-4.315,9.467-8.674,14.257-12.948,3.772-3.366,7.58-6.7,11.473-9.921a7.6,7.6,0,0,1,10.322.583c2.552,2.626,4.985,5.373,7.391,8.136A7.578,7.578,0,0,1-3790.417-1574.038Zm-19.528,55.225a2.373,2.373,0,0,1,2.028,1.329,2.215,2.215,0,0,1-.222,2.484,7.445,7.445,0,0,1-.814.871q-6.042,5.951-12.1,11.888c-.546.532-.626.862-.032,1.424,1.464,1.386,2.887,2.819,4.281,4.277.528.552.861.591,1.435.027q9.608-9.44,19.269-18.822c.452-.44.552-.689.045-1.2q-9.473-9.576-18.9-19.2-9.8-9.969-19.6-19.937-14.412-14.642-28.819-29.286c-.522-.532-.818-.55-1.356-.017q-9.651,9.576-19.353,19.1c-.467.458-.424.732.009,1.169,1.52,1.534,3.027,3.082,4.488,4.672.514.559.8.536,1.337.005,4.068-4.05,8.169-8.065,12.262-12.09a7.771,7.771,0,0,1,.691-.631,2.379,2.379,0,0,1,3.779,1.192,2.451,2.451,0,0,1-.91,2.65c-4.154,4.083-8.3,8.179-12.469,12.243-.532.518-.569.838-.04,1.367q2.2,2.2,4.312,4.486c.432.465.705.369,1.1-.02,1.117-1.093,2.262-2.157,3.4-3.225,1.327-1.243,2.637-2.506,4-3.709a2.344,2.344,0,0,1,3.792.931,2.4,2.4,0,0,1-.752,2.768c-2.171,2.169-4.329,4.351-6.521,6.5-.487.477-.559.787-.04,1.3q2.115,2.1,4.131,4.3c.542.6.879.629,1.477.033,4.065-4.051,8.169-8.065,12.261-12.089a6.85,6.85,0,0,1,.7-.627,2.187,2.187,0,0,1,2.483-.21,2.323,2.323,0,0,1,1.315,2.131,2.633,2.633,0,0,1-1,1.984c-4.135,4.062-8.254,8.141-12.409,12.183-.6.581-.582.938-.007,1.506q2.12,2.1,4.132,4.3c.495.543.772.493,1.259-.006,2.164-2.216,4.369-4.392,6.559-6.582a2.385,2.385,0,0,1,2.363-.847,2.385,2.385,0,0,1,1.112,4.123q-3.311,3.381-6.692,6.69c-.443.436-.569.7-.053,1.211,1.457,1.435,2.87,2.917,4.253,4.423.5.54.785.584,1.336.035,4.047-4.03,8.13-8.024,12.205-12.026a7.482,7.482,0,0,1,.894-.786,2.3,2.3,0,0,1,3.092.3,2.291,2.291,0,0,1,.187,3.039,8.457,8.457,0,0,1-.92,1q-6.056,5.938-12.13,11.858c-.52.505-.5.788,0,1.278q2.143,2.136,4.191,4.365c.505.55.81.568,1.345.017,2.1-2.161,4.249-4.27,6.375-6.4a2.915,2.915,0,0,1,1.735-1,2.4,2.4,0,0,1,2.4,1.291,2.3,2.3,0,0,1-.48,2.81q-3.355,3.395-6.755,6.747c-.452.443-.478.707-.013,1.156,1.492,1.44,2.976,2.893,4.394,4.4.606.646.95.586,1.55-.012,4.085-4.073,8.21-8.1,12.318-12.154A2.85,2.85,0,0,1-3809.945-1518.813Zm14.671-55.82a3.349,3.349,0,0,0-.988-2.107c-2.067-2.34-4.15-4.667-6.273-6.955a3.2,3.2,0,0,0-4.891-.162c-2.564,2.412-5.1,4.852-7.671,7.256-.468.438-.538.737-.084,1.246q4.764,5.334,9.477,10.715c.411.469.722.494,1.188.071,2.689-2.444,5.408-4.853,8.091-7.3A3.524,3.524,0,0,0-3795.274-1574.633ZM-3891-1497.178a4.779,4.779,0,0,0,.488-.132q9.695-4.3,19.388-8.6c.556-.246.492-.449.131-.842q-4.267-4.641-8.5-9.318c-.469-.519-.688-.561-1.056.117-1.529,2.821-3.117,5.61-4.68,8.412C-3887.115-1504.146-3889-1500.75-3891-1497.178Zm24.708-11.823c.124-.095.288-.2.431-.333q7.429-6.771,14.859-13.538c.4-.366.462-.626.059-1.035q-1.556-1.577-3.047-3.215c-.386-.423-.661-.462-1.113-.053q-7.363,6.651-14.766,13.259c-.431.386-.5.664-.088,1.106,1.065,1.142,2.095,2.316,3.141,3.475A.706.706,0,0,0-3866.288-1509Zm-7.219-7.906c.118-.092.28-.205.425-.335q1.812-1.616,3.618-3.237c3.7-3.321,7.383-6.652,11.1-9.954.543-.484.649-.794.05-1.325a33.9,33.9,0,0,1-2.531-2.527c-.462-.505-.758-.555-1.284-.05-1.495,1.435-3.055,2.8-4.587,4.2q-5.007,4.558-10.015,9.117c-.282.256-.471.456-.112.824.972.994,1.913,2.019,2.87,3.03A.565.565,0,0,0-3873.507-1516.907Zm64.517-43.988a1.049,1.049,0,0,0-.393-.636c-.894-.951-1.82-1.873-2.679-2.854-.4-.457-.674-.448-1.1-.06-1.594,1.45-3.212,2.876-4.82,4.311q-3.461,3.089-6.921,6.176c-.35.311-.606.572-.135,1.025,1.085,1.04,2.144,2.109,3.191,3.188.316.325.525.286.841,0q5.778-5.281,11.574-10.545C-3809.247-1560.461-3809.024-1560.611-3808.99-1560.9Zm-19.858,3.946a4.018,4.018,0,0,0,.447-.31c.549-.492,1.086-1,1.632-1.495,3.381-3.073,6.755-6.154,10.153-9.209.51-.458.5-.771.022-1.229-.635-.606-1.205-1.281-1.814-1.916-1.41-1.473-1.412-1.47-2.956-.086-.1.094-.216.184-.321.279q-5.224,4.758-10.455,9.509c-.463.418-.523.68-.048,1.144.953.931,1.84,1.93,2.759,2.9A.989.989,0,0,0-3828.848-1556.949Z" fill="#019933"/>
      <path id="Path_37" data-name="Path 37" d="M-3858.545-1599.689h-70.67c-1.359,0-1.36,0-1.36,1.335v64.617a6.807,6.807,0,0,0,.11,1.526,2.682,2.682,0,0,0,2.437,2.146c.453.035.909.026,1.363.026l42.539,0a8.584,8.584,0,0,1,1.274.063,2.269,2.269,0,0,1,2.1,2.6,2.226,2.226,0,0,1-2.448,2.176q-22.377.008-44.755-.008c-4.124-.007-7.317-3.378-7.466-7.752-.009-.283,0-.568,0-.852q0-51.788,0-103.575a9.665,9.665,0,0,1,.2-2.285,4.938,4.938,0,0,1,4.9-3.743c.227-.012.455-.007.682-.007q24.168,0,48.335,0a16.18,16.18,0,0,1,9,2.456,14.135,14.135,0,0,1,4.364,4.237c1.87,2.919,3.807,5.794,5.662,8.722a1.76,1.76,0,0,0,1.707.933q35.292-.033,70.584-.018a8.406,8.406,0,0,1,8.31,6.712,6.439,6.439,0,0,1,.117,1.353q.008,43.048,0,86.1a7.544,7.544,0,0,1-7.7,7.729q-2.046.012-4.092,0a2.317,2.317,0,0,1-2.591-2.322,2.381,2.381,0,0,1,2.456-2.5c1.333-.058,2.671-.009,4.006-.025,2.067-.025,3.065-1.039,3.066-3.115q0-32.691,0-65.384c0-1.146,0-1.148-1.2-1.148Zm-.093-4.852h70.837c1.181,0,1.184,0,1.184-1.169,0-4.4-.007-8.808.009-13.212a2.875,2.875,0,0,0-.537-1.752,3.506,3.506,0,0,0-3.106-1.567q-36.144.037-72.286.034a3.109,3.109,0,0,1-2.9-1.544c-2.246-3.487-4.554-6.934-6.845-10.391a9.144,9.144,0,0,0-.821-1.086,10.622,10.622,0,0,0-8.358-3.333q-23.952-.008-47.906,0c-1.21,0-1.212,0-1.212,1.229v31.455c0,1.338,0,1.339,1.356,1.339Z" fill="#019933"/>
      <path id="Path_38" data-name="Path 38" d="M-3903.445-1584.753q8.61,0,17.218,0a8.44,8.44,0,0,1,1.273.081,2.22,2.22,0,0,1,2.106,2.506,2.194,2.194,0,0,1-2.19,2.25,15.551,15.551,0,0,1-1.614.091q-16.876.008-33.754,0a10.6,10.6,0,0,1-1.781-.122,2.571,2.571,0,0,1-2.013-2.433,2.26,2.26,0,0,1,2.095-2.277,10.542,10.542,0,0,1,1.442-.094Q-3912.053-1584.759-3903.445-1584.753Z" fill="#019933"/>
      <path id="Path_39" data-name="Path 39" d="M-3903.53-1542.808q-8.736,0-17.472,0a3.036,3.036,0,0,1-2.655-1.068,2.249,2.249,0,0,1-.344-2.4,2.111,2.111,0,0,1,1.894-1.369c.566-.039,1.133-.095,1.7-.095q16.876-.009,33.752,0a15.358,15.358,0,0,1,1.869.114,2.17,2.17,0,0,1,1.939,2.22,2.209,2.209,0,0,1-1.854,2.466,10.58,10.58,0,0,1-1.7.125Q-3894.963-1542.8-3903.53-1542.808Z" fill="#019933"/>
      <path id="Path_40" data-name="Path 40" d="M-3909.3-1561.507c-4.117,0-8.234.007-12.351,0a2.393,2.393,0,0,1-2.469-1.811,2.339,2.339,0,0,1,1.685-2.9,5.2,5.2,0,0,1,1.351-.131q11.754,0,23.509.005a6.13,6.13,0,0,1,1.1.076,2.3,2.3,0,0,1,2.017,2.528,2.252,2.252,0,0,1-2.407,2.235C-3901.015-1561.5-3905.16-1561.508-3909.3-1561.507Z" fill="#019933"/>
    </g>
  </g>
</svg>
