<!-- <svg xmlns="http://www.w3.org/2000/svg" enable-background="new 0 0 24 24" height="24px" viewBox="0 0 24 24" width="24px" fill="#FFFFFF"><g><path d="M0,0h24v24H0V0z" fill="none"/></g><g><g><path d="M15,3H5C3.9,3,3.01,3.9,3.01,5L3,19c0,1.1,0.89,2,1.99,2H19c1.1,0,2-0.9,2-2V9L15,3z M8,17c-0.55,0-1-0.45-1-1s0.45-1,1-1 s1,0.45,1,1S8.55,17,8,17z M8,13c-0.55,0-1-0.45-1-1s0.45-1,1-1s1,0.45,1,1S8.55,13,8,13z M8,9C7.45,9,7,8.55,7,8s0.45-1,1-1 s1,0.45,1,1S8.55,9,8,9z M14,10V4.5l5.5,5.5H14z"/></g></g></svg> -->
<svg xmlns="http://www.w3.org/2000/svg" width="52.097" height="66" viewBox="0 0 52.097 66">
  <g id="NuNWq4" transform="translate(-361.284 -193)">
    <g id="Group_282" data-name="Group 282">
      <path id="Path_412" data-name="Path 412" d="M365.175,193h31.68c5.073,5.079,10.128,10.174,15.232,15.221a3.987,3.987,0,0,1,1.294,3.088c-.036,14.015-.019,28.029-.024,42.044,0,3.109-.994,4.53-3.888,5.647H365.175c-2.9-1.121-3.887-2.531-3.888-5.653q-.006-27.348,0-54.7C361.288,195.529,362.271,194.121,365.175,193Zm1.2,33.047h.006c0,7.67-.024,15.341.011,23.011.014,3.2,1.726,4.885,4.913,4.891q16.05.028,32.1,0c3.1-.006,4.831-1.705,4.841-4.812.034-10.993,0-21.986.033-32.979,0-1.269-.48-1.734-1.734-1.713-3.029.051-6.058.029-9.087.01-3.667-.023-5.621-1.957-5.652-5.606-.026-2.932,0-5.863-.01-8.795-.005-1.922-.082-2.006-1.968-2.008q-9.015-.012-18.029,0c-3.85.007-5.412,1.565-5.419,5.432Q366.362,214.761,366.377,226.047Z" fill="#fff"/>
      <path id="Path_413" data-name="Path 413" d="M387.278,249.681q-6.516,0-13.031,0a4.924,4.924,0,0,1-1.876-.23,2.363,2.363,0,0,1-1.637-2.214,2.406,2.406,0,0,1,1.585-2.4,4.918,4.918,0,0,1,2.016-.273q12.957,0,25.915,0c.244,0,.488,0,.732.011,1.8.1,2.967,1.131,2.947,2.607s-1.185,2.476-3.035,2.489c-4.538.03-9.077.01-13.616.01Z" fill="#fff"/>
      <path id="Path_414" data-name="Path 414" d="M387.278,225.81c4.294,0,8.588-.006,12.881.006a8.064,8.064,0,0,1,1.886.157A2.293,2.293,0,0,1,403.9,228.3a2.32,2.32,0,0,1-1.778,2.4,5.661,5.661,0,0,1-1.586.193q-13.246.017-26.494.007c-.2,0-.391,0-.585-.016a2.652,2.652,0,0,1-2.741-2.495,2.552,2.552,0,0,1,2.8-2.553c4.585-.045,9.172-.015,13.758-.015Z" fill="#fff"/>
      <path id="Path_415" data-name="Path 415" d="M387.321,240.3q-6.38,0-12.76,0a10.8,10.8,0,0,1-1.463-.053,2.5,2.5,0,0,1-.074-5,9.246,9.246,0,0,1,1.462-.07q12.834-.006,25.666,0c2.471,0,3.746.866,3.773,2.521.028,1.692-1.3,2.6-3.844,2.6Q393.7,240.31,387.321,240.3Z" fill="#fff"/>
      <path id="Path_416" data-name="Path 416" d="M379,221.514c-1.757,0-3.516.032-5.273-.008-1.81-.042-3-1.078-3.011-2.533-.011-1.483,1.146-2.529,2.976-2.548q5.42-.054,10.839,0c1.81.019,2.961,1.1,2.925,2.587-.035,1.436-1.149,2.442-2.89,2.488C382.714,221.551,380.857,221.513,379,221.514Z" fill="#fff"/>
    </g>
  </g>
</svg>
