<svg xmlns="http://www.w3.org/2000/svg" width="155.491" height="155.711" viewBox="0 0 155.491 155.711">
  <g id="HySDKl" transform="translate(-1054.849 -942.034)">
    <g id="Group_66" data-name="Group 66">
      <path id="Path_217" data-name="Path 217" d="M1185.546,1011.154c.893-2.595,1.743-5.066,2.595-7.536,1.666-4.834,3.312-9.674,5.006-14.5a8.824,8.824,0,0,1,11.077-5.35,8.994,8.994,0,0,1,5.725,11.106c-1.848,6.01-3.6,12.051-5.378,18.082-2.761,9.353-5.5,18.713-8.286,28.059a3.8,3.8,0,0,1-.966,1.5q-12.647,12.688-25.338,25.332a2.921,2.921,0,0,0-.976,2.278c.045,8.379.03,16.757.038,25.136a2.166,2.166,0,0,1-1.1,2.2,1.658,1.658,0,0,1-2.063-.2,3.112,3.112,0,0,1-.8-1.83c-.084-3.127-.046-6.258-.047-9.387,0-5.822.012-11.643-.017-17.464a3.242,3.242,0,0,1,1.049-2.492q12.945-12.886,25.831-25.833a3.748,3.748,0,0,0,.881-1.531q6.468-21.864,12.891-43.742c.143-.484.314-.959.46-1.442a4.868,4.868,0,0,0-3.09-6,4.8,4.8,0,0,0-6.085,2.9c-3.151,9.088-6.314,18.172-9.375,27.291a20.146,20.146,0,0,1-3.937,6.839c-5,5.816-9.914,11.7-14.864,17.563a6.674,6.674,0,0,1-.61.671,1.92,1.92,0,0,1-2.73.079,1.88,1.88,0,0,1-.208-2.714c1.285-1.6,2.63-3.151,3.95-4.721q6.4-7.609,12.788-15.219a5.253,5.253,0,0,0-7.835-7c-7.441,8.329-14.99,16.567-22.214,25.081a42.831,42.831,0,0,0-10.064,24.767c-.513,6.491-.289,13.042-.354,19.567-.042,4.239.013,8.479-.045,12.718a2.5,2.5,0,0,1-.669,1.776,2.81,2.81,0,0,1-2.024.38,1.718,1.718,0,0,1-1.266-1.853c-.02-1.648-.013-3.3-.007-4.946.03-8.547-.226-17.106.164-25.636a48.834,48.834,0,0,1,12.748-31.215c6.766-7.533,13.541-15.061,20.136-22.742,4.314-5.024,11.19-4.529,14.622-.288A3.326,3.326,0,0,0,1185.546,1011.154Z" fill="#019933"/>
      <path id="Path_218" data-name="Path 218" d="M1079.48,1011a27.238,27.238,0,0,1,3.372-2.453,9.038,9.038,0,0,1,11.129,2.059c7.505,8.406,15.058,16.771,22.425,25.3,4.554,5.27,7.342,11.537,9.277,18.2,1.923,6.627,1.91,13.415,1.867,20.22-.042,6.864-.01,13.728-.01,20.592,0,.068,0,.135,0,.2.007,1.683-.688,2.6-1.98,2.621-1.274.018-2.025-.921-2.027-2.585-.01-9.119.013-18.237-.023-27.356a46.47,46.47,0,0,0-8.5-27,103.634,103.634,0,0,0-7.414-8.78c-5.49-6.236-11.024-12.434-16.542-18.645a5.016,5.016,0,0,0-5.184-1.7,5.227,5.227,0,0,0-2.815,8.53c4.258,5.121,8.566,10.2,12.853,15.3,1.213,1.442,2.434,2.876,3.64,4.323a2.018,2.018,0,1,1-3.015,2.619c-5.625-6.653-11.266-13.293-16.815-20.009a11.9,11.9,0,0,1-1.838-3.669c-3.266-9.368-6.462-18.761-9.7-28.138a4.787,4.787,0,0,0-6.11-3.007,4.906,4.906,0,0,0-3.081,6.1q3.891,13.1,7.75,26.219c1.866,6.321,3.721,12.646,5.611,18.961a3.349,3.349,0,0,0,.81,1.348q12.961,13.012,25.966,25.983a2.837,2.837,0,0,1,.935,2.133q-.027,13.525-.025,27.052a2.05,2.05,0,0,1-1.994,2.306c-1.232.005-2-.907-2-2.4,0-8.345-.014-16.689.031-25.034a3.24,3.24,0,0,0-1.07-2.542q-12.634-12.552-25.193-25.182a4.821,4.821,0,0,1-1.135-1.959c-4.394-14.832-8.72-29.684-13.145-44.506-.772-2.583-1.072-5.027.089-7.548a9.071,9.071,0,0,1,8.271-5.145,8.816,8.816,0,0,1,7.995,5.678c2.343,6.7,4.627,13.417,6.938,20.126C1079.038,1009.835,1079.276,1010.449,1079.48,1011Z" fill="#019933"/>
      <path id="Path_219" data-name="Path 219" d="M1134.5,1001.485v5.419q0,16.3,0,32.605a8.453,8.453,0,0,1-.022,1.008,2.042,2.042,0,0,1-2.02,1.885,2,2,0,0,1-1.956-2.03c-.035-2.388-.016-4.777-.016-7.166v-32.5c0-8.107-.019-16.214.022-24.321.006-1.023-.285-1.307-1.3-1.325a29.532,29.532,0,0,1-16.5-4.873,24.565,24.565,0,0,1-10.338-15.592,74.917,74.917,0,0,1-1.2-9.79c-.169-1.991.649-2.844,2.678-2.762a43.591,43.591,0,0,1,7.008.753c8.685,1.785,15.7,6.047,20,14.079a32.206,32.206,0,0,1,3.535,14.577c.084,3.093.079,6.188.114,9.282a2.185,2.185,0,0,0,.2,1.069c.184-.245.388-.477.548-.736,4.271-6.881,10.536-10.816,18.4-12.251a63.288,63.288,0,0,1,7.522-.7,1.91,1.91,0,0,1,2.191,1.991c.441,7.175-.8,13.955-4.973,19.974-3.965,5.726-9.6,8.913-16.3,10.321-2.295.483-4.659.639-6.991.948C1134.952,1001.373,1134.792,1001.421,1134.5,1001.485Zm24.966-27.463c0-.336-.02-.674.005-1.008.043-.591-.156-.857-.8-.813-4.947.34-9.66,1.473-13.765,4.377-6.844,4.84-9.586,11.865-10.376,19.89-.069.7.231.915.867.827,2.029-.283,4.084-.444,6.081-.873,5.585-1.2,10.315-3.841,13.645-8.622A26.372,26.372,0,0,0,1159.464,974.022Zm-30.859-2.956c.29,0,.594-.022.894,0,.645.057.913-.178.856-.861a27.7,27.7,0,0,0-3.656-12.561c-4.738-7.661-12.12-10.643-20.656-11.54-.727-.077-.885.279-.794.89.341,2.29.519,4.619,1.058,6.861A21.134,21.134,0,0,0,1114,966.177C1118.309,969.465,1123.3,970.717,1128.6,971.066Z" fill="#019933"/>
    </g>
  </g>
</svg>
