<svg xmlns="http://www.w3.org/2000/svg" width="213.118" height="108.349" viewBox="0 0 213.118 108.349">
  <g id="byu9rY" transform="translate(-443.055 -972.743)">
    <g id="Group_64" data-name="Group 64">
      <path id="Path_207" data-name="Path 207" d="M559.364,1060.652h-20.8c-.788,6.624-1.567,13.171-2.37,19.915H474.523c.862-2.558,1.52-4.843,2.39-7.044,12.505-31.627,25.128-63.209,37.465-94.9,1.728-4.44,3.963-6.112,8.722-5.853,7.487.407,15.011.108,22.836.108v12.817H557.2V972.9c9.561,0,18.541-.112,27.511.141,1.123.032,2.76,1.8,3.2,3.089q17.513,51.249,34.773,102.583c.118.35-.074.805-.174,1.662H560.281C559.979,1073.879,559.69,1067.658,559.364,1060.652Zm-1.074-40.936H542.211c-.792,8.319-1.542,16.187-2.333,24.5H558.29Zm-1.023-11.569V992.733H544.8c-.5,5.279-.967,10.157-1.467,15.414Z"/>
      <path id="Path_208" data-name="Path 208" d="M509.394,973.6c-7.826,16.916-15.557,33.651-23.308,50.377-7.77,16.769-15.736,33.45-23.23,50.34-2.159,4.866-4.671,7.486-10.259,6.6-2.862-.452-5.853-.08-9.542-.08.823-1.947,1.3-3.449,2.051-4.8,18.321-32.834,36.726-65.621,54.942-98.513C502.189,973.666,504.49,971.79,509.394,973.6Z"/>
      <path id="Path_209" data-name="Path 209" d="M656.173,1079.235a6.547,6.547,0,0,1-1.131.441c-14.945,1.073-14.988,1.092-21.068-12.638q-19.516-44.074-38.945-88.188c-.746-1.69-1.352-3.441-2.048-5.228,4.4-1.789,6.714-.323,8.757,3.508q26.532,49.766,53.355,99.379A28.7,28.7,0,0,1,656.173,1079.235Z"/>
    </g>
  </g>
</svg>
