<svg xmlns="http://www.w3.org/2000/svg" width="120px" height="160" viewBox="0 0 205.363 160.105">
  <g id="PuK5i5" transform="translate(-446.59 -616.782)">
    <g id="Group_61" data-name="Group 61">
      <path id="Path_139" data-name="Path 139" d="M645.543,760.658c6.137.451,6.363.7,6.386,6.193.047,11.015.718,10.012-10.064,10.012H453.1c-6.315,0-6.5-.19-6.507-6.436,0-1.19,0-2.379,0-3.569.018-5.474.24-5.71,6.389-6.206v-4.107q0-22.207.005-44.416c.005-5.246.622-5.84,5.995-5.843q25.182-.01,50.364,0h4.4V687.418c-.588-.135-.971-.191-1.331-.311-1.588-.529-4.2-.708-4.549-1.687a5.793,5.793,0,0,1,2.224-6.947c11.541-8.838,22.909-17.9,34.448-26.743a6.891,6.891,0,0,0,3.132-6.252c-.184-8.324-.1-16.655-.025-24.982a16.961,16.961,0,0,1,.872-3.714q1.336.809,2.673,1.619c.107.065.2.2.31.209,7.421.9,14.843,1.782,22.849,2.739.155,3.544.48,8.251.466,12.957,0,.925-1.287,2.609-2.032,2.639a69.014,69.014,0,0,1-10.077-.408c-3.716-.4-7.4-1.11-11.781-1.791,0,5.071-.221,9.144.13,13.168.109,1.255,1.579,2.607,2.737,3.522,11.3,8.929,22.7,17.746,33.99,26.685a8.424,8.424,0,0,1,3.016,3.888c1.062,4.008.324,4.559-6.038,5.465v18.807h4.457q25.382,0,50.761.009c4.839,0,5.551.7,5.556,5.459q.024,22.207.006,44.414ZM562.149,755.9h-.071c0-3.965.25-7.949-.054-11.891a12.611,12.611,0,0,0-12.878-11.97,12.406,12.406,0,0,0-12.58,11.818c-.408,7.911-.249,15.859-.054,23.784a3.956,3.956,0,0,0,2.77,2.689c6.6.243,13.215.08,19.824.153,2.228.024,3.093-.927,3.059-3.082C562.106,763.567,562.149,759.733,562.149,755.9Zm-12.8-43.248a12.767,12.767,0,1,0-12.93-12.786A12.841,12.841,0,0,0,549.344,712.651Zm-70.659,35.524c0-6.534,0-6.579-4.995-6.524-8.25.091-7.877-1.232-7.888,6.44-.01,6.39-.005,6.39,6.42,6.39C478.685,754.481,478.685,754.481,478.685,748.175Zm154.044-.226c-.011-6.324-.011-6.36-6.06-6.31-7.63.062-6.777-.828-6.82,7.071-.031,5.779,0,5.779,7.383,5.773C632.741,754.479,632.741,754.479,632.729,747.949ZM478.7,725.456c.006-6.351.006-6.351-5.318-6.362-7.567-.014-7.567-.014-7.571,5.718-.006,7.142-.006,7.166,6.145,7.141C478.865,731.925,478.719,732.941,478.7,725.456Zm147.785-6.363c-7.168.037-6.625-.763-6.657,7-.024,5.852-.01,5.852,6.2,5.854,6.694,0,6.694,0,6.7-6.191C632.725,719.094,632.725,719.094,626.482,719.093Zm-102.917,6.5c0-6.489,0-6.489-6.319-6.5-6.466-.007-6.5-.006-6.46,5.567.059,8.008-1.116,7.247,7.511,7.286C523.564,731.97,523.564,731.955,523.565,725.59Zm64.185.266c.005-6.747.005-6.747-5.284-6.757-7.512-.014-7.512-.014-7.519,5.311-.01,7.542-.01,7.542,5.684,7.55C587.746,731.969,587.746,731.969,587.75,725.856Zm-64.184,22.209c0-6.428,0-6.448-5.573-6.422-8.113.038-7.176-.714-7.22,6.784-.036,6.053-.007,6.074,5.991,6.045C524.025,754.437,523.563,755.314,523.566,748.065Zm64.187.34c-.107-7.266,1.042-6.756-6.832-6.763-7.161-.007-5.883-.192-5.957,7.232-.057,5.614-.009,5.614,7.213,5.609C587.762,754.478,587.762,754.478,587.753,748.405Zm-86.571-22.658c0-6.651,0-6.675-5.416-6.652-8.31.036-7.325-.786-7.379,7.013-.041,5.864-.011,5.864,6.15,5.864C501.181,731.971,501.181,731.971,501.182,725.747Zm0,22.418c-.008-6.531-.008-6.551-6.3-6.523-7.413.033-6.45-.68-6.508,7.053-.052,6.9-.09,5.7,7.436,5.767C501.189,754.51,501.189,754.469,501.182,748.165Zm102.333,6.317c6.641.006,6.641.006,6.646-5.377.006-7.449.006-7.449-5.329-7.459-7.479-.013-7.479-.013-7.485,5.336C597.339,754.476,597.339,754.476,603.515,754.482Zm.533-35.384c-6.7,0-6.752,0-6.691,5.372.083,7.23-1.368,7.494,5.753,7.482,7.044-.011,7.088,0,7.037-5.348C610.072,718.8,611.2,719.1,604.048,719.1Z" fill="#f15a24"/>
      <path id="Path_140" data-name="Path 140" d="M550.828,698.285a41.657,41.657,0,0,1,5.693.075c.795.12,1.469,1.041,2.2,1.6-.776.505-1.526,1.061-2.343,1.488-.31.163-.776.026-1.171.033-7.713.134-9.052-1.466-7.451-9.121.153-.733.97-1.327,1.479-1.986.532.64,1.439,1.235,1.522,1.93A53.26,53.26,0,0,1,550.828,698.285Z" fill="#f15a24"/>
    </g>
  </g>
</svg>
