<svg xmlns="http://www.w3.org/2000/svg" viewBox="0 0 32.42 32.463">
  <g id="KxWGcy" transform="translate(-29.581 -623.748)">
    <g id="Group_141" data-name="Group 141">
      <g id="Group_140" data-name="Group 140">
        <path id="Path_308" data-name="Path 308" d="M49.341,648.163a2.3,2.3,0,0,0,1.555-.721c.389-.372.584-1.354,1.431-.479.714.738,1.452,1.463.7,2.554a11.189,11.189,0,0,1-1.23,1.314c-1.142,1.182-1.126,1.28.355,2a1.5,1.5,0,0,1,1.008,1.624,1.7,1.7,0,0,1-1.527,1.522,1.454,1.454,0,0,1-1.63-.971c-.64-1.376-.824-1.4-1.938-.326-.309.3-.61.606-.919.9a1.607,1.607,0,0,1-2.578-.043c-.178-.187-.365-.364-.548-.546-1.442-1.431-1.445-1.433-2.406.267a1.463,1.463,0,0,1-1.613.795,1.61,1.61,0,0,1-1.445-1.432,1.463,1.463,0,0,1,.8-1.613c1.72-.987,1.719-.989.291-2.429-1.756-1.772-1.756-2.08.01-3.858.09-.092.183-.182.272-.274,1.071-1.1,1.041-1.265-.359-1.928a1.456,1.456,0,0,1-.983-1.845,1.648,1.648,0,0,1,3.2-.08c.5,1.2.721,1.246,1.671.354.469-.441.907-.916,1.386-1.347a1.452,1.452,0,0,1,1.993-.066c1.144.8,1.17,1.121.222,2.163a2.363,2.363,0,0,0-.513,2.73A2.767,2.767,0,0,0,49.341,648.163Z"/>
        <path id="Path_309" data-name="Path 309" d="M31.3,632.608a1.545,1.545,0,0,1,1.7,1.228c.3,1.15.889,1.24,1.6.433,2.307-2.629,3.064-2.234,4.968.028.64.761,1.264.694,1.556-.358.253-.91.788-1.447,1.77-1.3A1.662,1.662,0,0,1,44.38,634.2c.094.908-.469,1.385-1.291,1.676-1.123.4-1.192.747-.385,1.619.467.5.981.966,1.433,1.483a1.448,1.448,0,0,1,.048,1.995c-.853,1.158-1.113,1.189-2.15.2a2.627,2.627,0,0,0-3.709.123,2.529,2.529,0,0,0-.062,3.69c.392.4,1.322.629.487,1.454-.727.718-1.473,1.467-2.555.69a17.577,17.577,0,0,1-1.6-1.5c-.69-.642-1.246-.748-1.586.353a1.529,1.529,0,0,1-1.806,1.277,1.694,1.694,0,0,1-1.462-1.591,1.489,1.489,0,0,1,1.283-1.673c1.178-.3,1.018-1.008.321-1.544-2.31-1.774-2.421-3.055.039-5,.909-.719.713-1.158-.489-1.662-.793-.332-1.322-.851-1.123-1.776A1.638,1.638,0,0,1,31.3,632.608Z" />
        <path id="Path_310" data-name="Path 310" d="M51.528,638.438a1.661,1.661,0,0,1-1.534-1.372c-.3-1.122-.854-1.015-1.54-.331q-.637.637-1.283,1.269a1.622,1.622,0,0,1-2.5.022c-.731-.647-1.172-1.11-.059-1.92a2.493,2.493,0,0,0,.045-3.673,2.634,2.634,0,0,0-3.7-.182c-.487.451-.764,1.362-1.661.415-.964-1.016-1.133-1.776-.334-2.686a14.663,14.663,0,0,1,1.133-1.05c1.065-.979,1.031-1.254-.288-1.829a1.61,1.61,0,0,1-1.139-1.416,1.675,1.675,0,0,1,.92-1.586,1.519,1.519,0,0,1,2.282.878c.593,1.358.755,1.391,1.826.374,2.261-2.147,2.261-2.147,4.661.059.954.877,1.22.831,1.684-.349a1.585,1.585,0,0,1,1.74-1.217,1.622,1.622,0,0,1,1.522,1.505c.128.928-.464,1.39-1.26,1.7-1.087.418-1.161.77-.4,1.649a1.106,1.106,0,0,0,.089.093c2.52,2.227,1.994,2.845.024,4.705-.952.9-.848,1.193.446,1.75a1.5,1.5,0,0,1,.981,1.862A1.652,1.652,0,0,1,51.528,638.438Z"/>
        <path id="Path_311" data-name="Path 311" d="M47.4,645.593a1.632,1.632,0,0,1,1.158-1.588c1.346-.553,1.385-.773.372-1.836-.386-.4-.788-.792-1.178-1.192a1.472,1.472,0,0,1-.077-2.183c.879-1.108,1.065-1.13,2.064-.148a2.65,2.65,0,0,0,3.71-.093,2.688,2.688,0,0,0,.078-3.722c-.334-.352-1.475-.4-.6-1.364.955-1.052,1.8-1.314,2.651-.625.533.43.982.962,1.49,1.426.713.651,1.3.644,1.619-.384a1.491,1.491,0,0,1,1.7-1.235,1.672,1.672,0,0,1,1.551,1.5c.14.982-.455,1.493-1.345,1.745-.989.28-.968.764-.34,1.473,2.222,2.511,2.218,2.527-.024,5.14-.609.71-.63,1.216.376,1.47a1.63,1.63,0,1,1-1.851,1.875c-.257-.983-.767-1.054-1.463-.4-.343.325-.67.668-1.008,1-1.315,1.28-1.889,1.273-3.23-.042-.246-.24-.482-.49-.731-.728-1-.955-1.166-.922-1.722.4a1.524,1.524,0,0,1-1.807,1.092A1.659,1.659,0,0,1,47.4,645.593Z"/>
      </g>
    </g>
  </g>
</svg>
