<svg xmlns="http://www.w3.org/2000/svg" width="148.66" height="133.63" viewBox="0 0 148.66 133.63">
  <g id="ayo526" transform="translate(-790.929 -640.735)">
    <g id="Group_62" data-name="Group 62">
      <path id="Path_141" data-name="Path 141" d="M790.929,746.5a24.738,24.738,0,0,1,.7-2.625,16.667,16.667,0,0,1,5.01-6.658,46.046,46.046,0,0,1,13.274-7.447,1.786,1.786,0,0,1,2.434.913,1.805,1.805,0,0,1-1.1,2.415,57.665,57.665,0,0,0-8.082,3.887,21.322,21.322,0,0,0-7.2,6.309,7.477,7.477,0,0,0-.038,8.769,18.484,18.484,0,0,0,5.144,5.031,50.34,50.34,0,0,0,11.875,5.924,117.993,117.993,0,0,0,22.191,5.525q5.96.951,11.97,1.458,4.4.372,8.825.554c3.649.146,7.3.248,10.949.212q6.186-.06,12.359-.462c3.973-.255,7.932-.63,11.877-1.149a126.08,126.08,0,0,0,25.138-5.662,56.045,56.045,0,0,0,11.982-5.582,21.208,21.208,0,0,0,5.829-5.114,8.471,8.471,0,0,0,1.905-4.816,8.95,8.95,0,0,0-2.686-6.332,27.129,27.129,0,0,0-7.409-5.523,59.136,59.136,0,0,0-5.595-2.643,1.811,1.811,0,0,1-1.149-2.342,1.77,1.77,0,0,1,2.456-.993,43.527,43.527,0,0,1,12.293,7.057,16.478,16.478,0,0,1,4.929,6.5c1.535,4,.748,7.668-1.738,11.034a26.657,26.657,0,0,1-8.151,6.931,69.739,69.739,0,0,1-15.428,6.491,130.5,130.5,0,0,1-16.651,3.779q-5.616.926-11.286,1.458c-3.592.337-7.185.618-10.792.755q-1.7.064-3.4.1a1.324,1.324,0,0,0-.663.113h-10.9a2.253,2.253,0,0,0-.477-.1c-2.8-.018-5.6-.2-8.4-.373-2.633-.163-5.262-.38-7.881-.675-3.912-.441-7.811-.978-11.688-1.681a110.432,110.432,0,0,1-22.2-6.15,48.61,48.61,0,0,1-10.7-5.778,19.905,19.905,0,0,1-6.528-7.384,19.275,19.275,0,0,1-1-3.243Z" fill="#0071bc"/>
      <path id="Path_142" data-name="Path 142" d="M865.254,735.254a29.89,29.89,0,0,1-29.691-26.405,29.65,29.65,0,0,1,3.827-18.467c1.23-2.171,2.324-4.418,3.47-6.636q4.332-8.386,8.655-16.778,3.634-7.039,7.284-14.072,3.048-5.879,6.112-11.75c.082-.157.115-.4.329-.411s.265.237.346.39q1.073,2.023,2.124,4.057,3.393,6.574,6.778,13.15,4.617,8.937,9.244,17.867c2.371,4.58,4.7,9.186,7.135,13.73a33.627,33.627,0,0,1,3.42,8.395,29.951,29.951,0,0,1-24.463,36.616A22.807,22.807,0,0,1,865.254,735.254Z" fill="#0071bc"/>
      <path id="Path_143" data-name="Path 143" d="M864.691,760.991c-3.294-.1-7.1-.216-10.9-.586a95.29,95.29,0,0,1-15.168-2.614,40.168,40.168,0,0,1-12.17-5.083,13.351,13.351,0,0,1-3.763-3.54,7.468,7.468,0,0,1,.714-9.806,16.044,16.044,0,0,1,3.039-2.622,1.79,1.79,0,0,1,2.621.4,1.817,1.817,0,0,1-.527,2.51,18.891,18.891,0,0,0-2.224,1.869c-1.984,2.044-1.994,4.285-.029,6.334a17.931,17.931,0,0,0,5.746,3.8,63.536,63.536,0,0,0,17.349,4.622,120.216,120.216,0,0,0,13,1.03,121.812,121.812,0,0,0,12.974-.392,85.064,85.064,0,0,0,13.864-2.157A41.784,41.784,0,0,0,901.583,750a11.07,11.07,0,0,0,3.226-2.855,3.821,3.821,0,0,0-.318-5.29,13.143,13.143,0,0,0-1.858-1.724,1.815,1.815,0,0,1-.493-2.561,1.761,1.761,0,0,1,2.529-.369,11.408,11.408,0,0,1,3.949,4.436c1.363,2.974.722,5.683-1.265,8.139a18.212,18.212,0,0,1-6.538,4.786c-6.216,2.98-12.864,4.39-19.636,5.325a107.133,107.133,0,0,1-12.817,1.014C867.313,760.917,866.261,760.975,864.691,760.991Z" fill="#0071bc"/>
    </g>
  </g>
</svg>
